<mxfile host="Electron" agent="Mozilla/5.0 (Windows NT 10.0; Win64; x64) AppleWebKit/537.36 (KHTML, like Gecko) draw.io/27.0.9 Chrome/134.0.6998.205 Electron/35.4.0 Safari/537.36" version="27.0.9">
  <diagram name="Page-1" id="98I1_oZJ7lvWs5_vr2ny">
    <mxGraphModel dx="1743" dy="1086" grid="1" gridSize="10" guides="1" tooltips="1" connect="1" arrows="1" fold="1" page="1" pageScale="1" pageWidth="850" pageHeight="1100" math="0" shadow="0">
      <root>
        <mxCell id="0" />
        <mxCell id="1" parent="0" />
        <mxCell id="Q3DIbl1BtEreVl4ZhK06-36" value="" style="rounded=0;whiteSpace=wrap;html=1;" parent="1" vertex="1">
          <mxGeometry x="40" y="40" width="3280" height="1760" as="geometry" />
        </mxCell>
        <mxCell id="d3JcHvjQmQeXnqKImObB-3" style="edgeStyle=orthogonalEdgeStyle;rounded=0;orthogonalLoop=1;jettySize=auto;html=1;exitX=1;exitY=0.5;exitDx=0;exitDy=0;entryX=0;entryY=0.5;entryDx=0;entryDy=0;fillColor=#b0e3e6;strokeColor=#0e8088;" parent="1" source="d3JcHvjQmQeXnqKImObB-1" target="d3JcHvjQmQeXnqKImObB-2" edge="1">
          <mxGeometry relative="1" as="geometry" />
        </mxCell>
        <mxCell id="d3JcHvjQmQeXnqKImObB-1" value="消逝的旅途&lt;br&gt;入口" style="rounded=0;whiteSpace=wrap;html=1;fillColor=#b0e3e6;strokeColor=#0e8088;" parent="1" vertex="1">
          <mxGeometry x="80" y="560" width="80" height="40" as="geometry" />
        </mxCell>
        <mxCell id="d3JcHvjQmQeXnqKImObB-93" style="edgeStyle=orthogonalEdgeStyle;rounded=0;orthogonalLoop=1;jettySize=auto;html=1;exitX=1;exitY=0.5;exitDx=0;exitDy=0;entryX=0;entryY=0.5;entryDx=0;entryDy=0;fillColor=#b0e3e6;strokeColor=#0e8088;" parent="1" source="d3JcHvjQmQeXnqKImObB-2" target="d3JcHvjQmQeXnqKImObB-59" edge="1">
          <mxGeometry relative="1" as="geometry" />
        </mxCell>
        <mxCell id="d3JcHvjQmQeXnqKImObB-96" style="edgeStyle=orthogonalEdgeStyle;rounded=0;orthogonalLoop=1;jettySize=auto;html=1;exitX=1;exitY=0.5;exitDx=0;exitDy=0;entryX=0;entryY=0.5;entryDx=0;entryDy=0;fillColor=#b0e3e6;strokeColor=#0e8088;" parent="1" source="d3JcHvjQmQeXnqKImObB-2" target="d3JcHvjQmQeXnqKImObB-43" edge="1">
          <mxGeometry relative="1" as="geometry" />
        </mxCell>
        <mxCell id="d3JcHvjQmQeXnqKImObB-97" style="edgeStyle=orthogonalEdgeStyle;rounded=0;orthogonalLoop=1;jettySize=auto;html=1;exitX=0.5;exitY=0;exitDx=0;exitDy=0;entryX=0.5;entryY=1;entryDx=0;entryDy=0;fillColor=#b0e3e6;strokeColor=#0e8088;" parent="1" source="d3JcHvjQmQeXnqKImObB-2" target="d3JcHvjQmQeXnqKImObB-4" edge="1">
          <mxGeometry relative="1" as="geometry" />
        </mxCell>
        <mxCell id="d3JcHvjQmQeXnqKImObB-2" value="無名村落" style="rounded=0;whiteSpace=wrap;html=1;fillColor=#b0e3e6;strokeColor=#0e8088;fontStyle=1;strokeWidth=2;" parent="1" vertex="1">
          <mxGeometry x="200" y="560" width="80" height="40" as="geometry" />
        </mxCell>
        <mxCell id="d3JcHvjQmQeXnqKImObB-10" style="edgeStyle=orthogonalEdgeStyle;rounded=0;orthogonalLoop=1;jettySize=auto;html=1;exitX=1;exitY=0.5;exitDx=0;exitDy=0;entryX=0;entryY=0.5;entryDx=0;entryDy=0;fillColor=#ffe6cc;strokeColor=#d79b00;" parent="1" source="d3JcHvjQmQeXnqKImObB-4" target="d3JcHvjQmQeXnqKImObB-5" edge="1">
          <mxGeometry relative="1" as="geometry" />
        </mxCell>
        <mxCell id="d3JcHvjQmQeXnqKImObB-4" value="地鐵站入口" style="rounded=0;whiteSpace=wrap;html=1;fillColor=#ffe6cc;strokeColor=#d79b00;" parent="1" vertex="1">
          <mxGeometry x="200" y="160" width="80" height="40" as="geometry" />
        </mxCell>
        <mxCell id="d3JcHvjQmQeXnqKImObB-11" style="edgeStyle=orthogonalEdgeStyle;rounded=0;orthogonalLoop=1;jettySize=auto;html=1;exitX=1;exitY=0.5;exitDx=0;exitDy=0;entryX=0;entryY=0.5;entryDx=0;entryDy=0;fillColor=#ffe6cc;strokeColor=#d79b00;" parent="1" source="d3JcHvjQmQeXnqKImObB-5" target="d3JcHvjQmQeXnqKImObB-6" edge="1">
          <mxGeometry relative="1" as="geometry" />
        </mxCell>
        <mxCell id="d3JcHvjQmQeXnqKImObB-5" value="地下線路入口" style="rounded=0;whiteSpace=wrap;html=1;fillColor=#ffe6cc;strokeColor=#d79b00;" parent="1" vertex="1">
          <mxGeometry x="320" y="160" width="80" height="40" as="geometry" />
        </mxCell>
        <mxCell id="d3JcHvjQmQeXnqKImObB-12" style="edgeStyle=orthogonalEdgeStyle;rounded=0;orthogonalLoop=1;jettySize=auto;html=1;exitX=1;exitY=0.5;exitDx=0;exitDy=0;entryX=0;entryY=0.5;entryDx=0;entryDy=0;fillColor=#ffe6cc;strokeColor=#d79b00;" parent="1" source="d3JcHvjQmQeXnqKImObB-6" target="d3JcHvjQmQeXnqKImObB-9" edge="1">
          <mxGeometry relative="1" as="geometry">
            <mxPoint x="560" y="180" as="targetPoint" />
          </mxGeometry>
        </mxCell>
        <mxCell id="d3JcHvjQmQeXnqKImObB-6" value="地下線路 1/2/3" style="rounded=0;whiteSpace=wrap;html=1;fillColor=#ffe6cc;strokeColor=#d79b00;" parent="1" vertex="1">
          <mxGeometry x="440" y="160" width="80" height="40" as="geometry" />
        </mxCell>
        <mxCell id="d3JcHvjQmQeXnqKImObB-16" style="edgeStyle=orthogonalEdgeStyle;rounded=0;orthogonalLoop=1;jettySize=auto;html=1;exitX=1;exitY=0.5;exitDx=0;exitDy=0;entryX=0;entryY=0.5;entryDx=0;entryDy=0;fillColor=#ffe6cc;strokeColor=#d79b00;" parent="1" source="d3JcHvjQmQeXnqKImObB-9" target="d3JcHvjQmQeXnqKImObB-15" edge="1">
          <mxGeometry relative="1" as="geometry" />
        </mxCell>
        <mxCell id="uA6WqvITDLGF0Sce4mHZ-1" style="edgeStyle=orthogonalEdgeStyle;rounded=0;orthogonalLoop=1;jettySize=auto;html=1;exitX=0.75;exitY=1;exitDx=0;exitDy=0;entryX=0;entryY=0.5;entryDx=0;entryDy=0;dashed=1;fillColor=#ffe6cc;strokeColor=#d79b00;" parent="1" source="d3JcHvjQmQeXnqKImObB-9" target="d3JcHvjQmQeXnqKImObB-32" edge="1">
          <mxGeometry relative="1" as="geometry">
            <Array as="points">
              <mxPoint x="620" y="310" />
              <mxPoint x="720" y="310" />
              <mxPoint x="720" y="420" />
            </Array>
          </mxGeometry>
        </mxCell>
        <mxCell id="uA6WqvITDLGF0Sce4mHZ-2" value="NPC&lt;br&gt;奧里帕" style="edgeLabel;html=1;align=center;verticalAlign=middle;resizable=0;points=[];fontColor=#D79B00;" parent="uA6WqvITDLGF0Sce4mHZ-1" vertex="1" connectable="0">
          <mxGeometry x="-0.9308" relative="1" as="geometry">
            <mxPoint as="offset" />
          </mxGeometry>
        </mxCell>
        <mxCell id="d3JcHvjQmQeXnqKImObB-9" value="地下線路&lt;br&gt;避難處" style="rounded=0;whiteSpace=wrap;html=1;fillColor=#ffe6cc;strokeColor=#d79b00;fontStyle=1;strokeWidth=2;" parent="1" vertex="1">
          <mxGeometry x="560" y="160" width="80" height="40" as="geometry" />
        </mxCell>
        <mxCell id="d3JcHvjQmQeXnqKImObB-25" style="edgeStyle=orthogonalEdgeStyle;rounded=0;orthogonalLoop=1;jettySize=auto;html=1;exitX=1;exitY=0.5;exitDx=0;exitDy=0;entryX=0;entryY=0.5;entryDx=0;entryDy=0;fillColor=#ffe6cc;strokeColor=#d79b00;" parent="1" source="d3JcHvjQmQeXnqKImObB-15" target="d3JcHvjQmQeXnqKImObB-21" edge="1">
          <mxGeometry relative="1" as="geometry" />
        </mxCell>
        <mxCell id="SFGJ2DjizF-hznq4Pdk7-2" style="edgeStyle=orthogonalEdgeStyle;rounded=0;orthogonalLoop=1;jettySize=auto;html=1;exitX=0.25;exitY=0;exitDx=0;exitDy=0;entryX=0.25;entryY=0;entryDx=0;entryDy=0;fillColor=#ffe6cc;strokeColor=#d79b00;dashed=1;" parent="1" source="d3JcHvjQmQeXnqKImObB-15" target="d3JcHvjQmQeXnqKImObB-21" edge="1">
          <mxGeometry relative="1" as="geometry" />
        </mxCell>
        <mxCell id="SFGJ2DjizF-hznq4Pdk7-3" value="NPC 拉索爾" style="edgeLabel;html=1;align=center;verticalAlign=middle;resizable=0;points=[];fontColor=#D79B00;" parent="SFGJ2DjizF-hznq4Pdk7-2" vertex="1" connectable="0">
          <mxGeometry x="-0.4375" y="-4" relative="1" as="geometry">
            <mxPoint x="35" y="-4" as="offset" />
          </mxGeometry>
        </mxCell>
        <mxCell id="d3JcHvjQmQeXnqKImObB-15" value="地下線路 4/5/6" style="rounded=0;whiteSpace=wrap;html=1;fillColor=#ffe6cc;strokeColor=#d79b00;" parent="1" vertex="1">
          <mxGeometry x="680" y="160" width="80" height="40" as="geometry" />
        </mxCell>
        <mxCell id="d3JcHvjQmQeXnqKImObB-26" style="edgeStyle=orthogonalEdgeStyle;rounded=0;orthogonalLoop=1;jettySize=auto;html=1;exitX=0.5;exitY=1;exitDx=0;exitDy=0;entryX=0.5;entryY=0;entryDx=0;entryDy=0;fillColor=#ffe6cc;strokeColor=#d79b00;" parent="1" source="d3JcHvjQmQeXnqKImObB-21" target="d3JcHvjQmQeXnqKImObB-22" edge="1">
          <mxGeometry relative="1" as="geometry" />
        </mxCell>
        <mxCell id="SFGJ2DjizF-hznq4Pdk7-1" style="edgeStyle=orthogonalEdgeStyle;rounded=0;orthogonalLoop=1;jettySize=auto;html=1;exitX=0.5;exitY=0;exitDx=0;exitDy=0;entryX=0.5;entryY=1;entryDx=0;entryDy=0;fillColor=#ffe6cc;strokeColor=#d79b00;" parent="1" source="d3JcHvjQmQeXnqKImObB-21" target="d3JcHvjQmQeXnqKImObB-37" edge="1">
          <mxGeometry relative="1" as="geometry" />
        </mxCell>
        <mxCell id="d3JcHvjQmQeXnqKImObB-21" value="倍爾的居處" style="rounded=0;whiteSpace=wrap;html=1;fillColor=#ffe6cc;strokeColor=#d79b00;" parent="1" vertex="1">
          <mxGeometry x="800" y="160" width="80" height="40" as="geometry" />
        </mxCell>
        <mxCell id="d3JcHvjQmQeXnqKImObB-27" style="edgeStyle=orthogonalEdgeStyle;rounded=0;orthogonalLoop=1;jettySize=auto;html=1;exitX=1;exitY=0.5;exitDx=0;exitDy=0;entryX=0;entryY=0.5;entryDx=0;entryDy=0;fillColor=#ffe6cc;strokeColor=#d79b00;" parent="1" source="d3JcHvjQmQeXnqKImObB-22" target="d3JcHvjQmQeXnqKImObB-23" edge="1">
          <mxGeometry relative="1" as="geometry" />
        </mxCell>
        <mxCell id="d3JcHvjQmQeXnqKImObB-22" value="地下線路某處" style="rounded=0;whiteSpace=wrap;html=1;fillColor=#ffe6cc;strokeColor=#d79b00;" parent="1" vertex="1">
          <mxGeometry x="800" y="240" width="80" height="40" as="geometry" />
        </mxCell>
        <mxCell id="d3JcHvjQmQeXnqKImObB-28" style="edgeStyle=orthogonalEdgeStyle;rounded=0;orthogonalLoop=1;jettySize=auto;html=1;exitX=1;exitY=0.5;exitDx=0;exitDy=0;entryX=0;entryY=0.5;entryDx=0;entryDy=0;fillColor=#ffe6cc;strokeColor=#d79b00;" parent="1" source="d3JcHvjQmQeXnqKImObB-23" target="d3JcHvjQmQeXnqKImObB-24" edge="1">
          <mxGeometry relative="1" as="geometry" />
        </mxCell>
        <mxCell id="d3JcHvjQmQeXnqKImObB-23" value="地下列車 1/2/3" style="rounded=0;whiteSpace=wrap;html=1;fillColor=#ffe6cc;strokeColor=#d79b00;" parent="1" vertex="1">
          <mxGeometry x="920" y="240" width="80" height="40" as="geometry" />
        </mxCell>
        <mxCell id="d3JcHvjQmQeXnqKImObB-33" style="edgeStyle=orthogonalEdgeStyle;rounded=0;orthogonalLoop=1;jettySize=auto;html=1;exitX=1;exitY=0.5;exitDx=0;exitDy=0;entryX=0;entryY=0.5;entryDx=0;entryDy=0;fillColor=#ffe6cc;strokeColor=#d79b00;" parent="1" source="d3JcHvjQmQeXnqKImObB-24" target="d3JcHvjQmQeXnqKImObB-29" edge="1">
          <mxGeometry relative="1" as="geometry" />
        </mxCell>
        <mxCell id="d3JcHvjQmQeXnqKImObB-24" value="地上列車 1/2/3" style="rounded=0;whiteSpace=wrap;html=1;fillColor=#ffe6cc;strokeColor=#d79b00;" parent="1" vertex="1">
          <mxGeometry x="1040" y="240" width="80" height="40" as="geometry" />
        </mxCell>
        <mxCell id="d3JcHvjQmQeXnqKImObB-35" style="edgeStyle=orthogonalEdgeStyle;rounded=0;orthogonalLoop=1;jettySize=auto;html=1;exitX=0.5;exitY=1;exitDx=0;exitDy=0;entryX=0.5;entryY=0;entryDx=0;entryDy=0;fillColor=#ffe6cc;strokeColor=#d79b00;" parent="1" source="d3JcHvjQmQeXnqKImObB-29" target="d3JcHvjQmQeXnqKImObB-31" edge="1">
          <mxGeometry relative="1" as="geometry" />
        </mxCell>
        <mxCell id="d3JcHvjQmQeXnqKImObB-62" style="edgeStyle=orthogonalEdgeStyle;rounded=0;orthogonalLoop=1;jettySize=auto;html=1;exitX=0.5;exitY=0;exitDx=0;exitDy=0;entryX=0.5;entryY=1;entryDx=0;entryDy=0;fillColor=#ffe6cc;strokeColor=#d79b00;" parent="1" source="d3JcHvjQmQeXnqKImObB-29" target="d3JcHvjQmQeXnqKImObB-30" edge="1">
          <mxGeometry relative="1" as="geometry" />
        </mxCell>
        <mxCell id="d3JcHvjQmQeXnqKImObB-29" value="M 高塔 1" style="rounded=0;whiteSpace=wrap;html=1;fillColor=#ffe6cc;strokeColor=#d79b00;" parent="1" vertex="1">
          <mxGeometry x="1160" y="240" width="80" height="40" as="geometry" />
        </mxCell>
        <mxCell id="d3JcHvjQmQeXnqKImObB-30" value="隱藏 M 高塔" style="rounded=0;whiteSpace=wrap;html=1;fillColor=#ffe6cc;strokeColor=#d79b00;" parent="1" vertex="1">
          <mxGeometry x="1160" y="160" width="80" height="40" as="geometry" />
        </mxCell>
        <mxCell id="d3JcHvjQmQeXnqKImObB-36" style="edgeStyle=orthogonalEdgeStyle;rounded=0;orthogonalLoop=1;jettySize=auto;html=1;exitX=0.5;exitY=1;exitDx=0;exitDy=0;entryX=0.5;entryY=0;entryDx=0;entryDy=0;fillColor=#ffe6cc;strokeColor=#d79b00;" parent="1" source="d3JcHvjQmQeXnqKImObB-31" target="d3JcHvjQmQeXnqKImObB-32" edge="1">
          <mxGeometry relative="1" as="geometry" />
        </mxCell>
        <mxCell id="d3JcHvjQmQeXnqKImObB-31" value="M 高塔 2/3/4" style="rounded=0;whiteSpace=wrap;html=1;fillColor=#ffe6cc;strokeColor=#d79b00;" parent="1" vertex="1">
          <mxGeometry x="1160" y="320" width="80" height="40" as="geometry" />
        </mxCell>
        <mxCell id="d3JcHvjQmQeXnqKImObB-32" value="M 高塔頂層" style="rounded=0;whiteSpace=wrap;html=1;fillColor=#ffe6cc;strokeColor=#d79b00;" parent="1" vertex="1">
          <mxGeometry x="1160" y="400" width="80" height="40" as="geometry" />
        </mxCell>
        <mxCell id="d3JcHvjQmQeXnqKImObB-39" style="edgeStyle=orthogonalEdgeStyle;rounded=0;orthogonalLoop=1;jettySize=auto;html=1;exitX=1;exitY=0.5;exitDx=0;exitDy=0;fillColor=#ffe6cc;strokeColor=#d79b00;" parent="1" source="d3JcHvjQmQeXnqKImObB-37" target="d3JcHvjQmQeXnqKImObB-38" edge="1">
          <mxGeometry relative="1" as="geometry" />
        </mxCell>
        <mxCell id="d3JcHvjQmQeXnqKImObB-37" value="T-boy 的研究列車 1" style="rounded=0;whiteSpace=wrap;html=1;fillColor=#ffe6cc;strokeColor=#d79b00;" parent="1" vertex="1">
          <mxGeometry x="800" y="80" width="80" height="40" as="geometry" />
        </mxCell>
        <mxCell id="d3JcHvjQmQeXnqKImObB-41" style="edgeStyle=orthogonalEdgeStyle;rounded=0;orthogonalLoop=1;jettySize=auto;html=1;exitX=1;exitY=0.5;exitDx=0;exitDy=0;entryX=0;entryY=0.5;entryDx=0;entryDy=0;fillColor=#ffe6cc;strokeColor=#d79b00;" parent="1" source="d3JcHvjQmQeXnqKImObB-38" target="d3JcHvjQmQeXnqKImObB-40" edge="1">
          <mxGeometry relative="1" as="geometry" />
        </mxCell>
        <mxCell id="d3JcHvjQmQeXnqKImObB-38" value="T-boy 的研究列車 2/3" style="rounded=0;whiteSpace=wrap;html=1;fillColor=#ffe6cc;strokeColor=#d79b00;" parent="1" vertex="1">
          <mxGeometry x="920" y="80" width="80" height="40" as="geometry" />
        </mxCell>
        <mxCell id="d3JcHvjQmQeXnqKImObB-40" value="隱藏研究列車" style="rounded=0;whiteSpace=wrap;html=1;fillColor=#ffe6cc;strokeColor=#d79b00;" parent="1" vertex="1">
          <mxGeometry x="1040" y="80" width="80" height="40" as="geometry" />
        </mxCell>
        <mxCell id="d3JcHvjQmQeXnqKImObB-52" style="edgeStyle=orthogonalEdgeStyle;rounded=0;orthogonalLoop=1;jettySize=auto;html=1;exitX=1;exitY=0.5;exitDx=0;exitDy=0;entryX=0;entryY=0.5;entryDx=0;entryDy=0;fillColor=#dae8fc;strokeColor=#6c8ebf;" parent="1" source="d3JcHvjQmQeXnqKImObB-43" target="d3JcHvjQmQeXnqKImObB-45" edge="1">
          <mxGeometry relative="1" as="geometry" />
        </mxCell>
        <mxCell id="d3JcHvjQmQeXnqKImObB-56" style="edgeStyle=orthogonalEdgeStyle;rounded=0;orthogonalLoop=1;jettySize=auto;html=1;exitX=0.5;exitY=0;exitDx=0;exitDy=0;entryX=0.5;entryY=1;entryDx=0;entryDy=0;fillColor=#dae8fc;strokeColor=#6c8ebf;" parent="1" source="d3JcHvjQmQeXnqKImObB-43" target="d3JcHvjQmQeXnqKImObB-44" edge="1">
          <mxGeometry relative="1" as="geometry" />
        </mxCell>
        <mxCell id="d3JcHvjQmQeXnqKImObB-43" value="風化的&lt;br&gt;開心之地" style="rounded=0;whiteSpace=wrap;html=1;fillColor=#dae8fc;strokeColor=#6c8ebf;" parent="1" vertex="1">
          <mxGeometry x="320" y="480" width="80" height="40" as="geometry" />
        </mxCell>
        <mxCell id="d3JcHvjQmQeXnqKImObB-44" value="風化的開心與憤怒之地" style="rounded=0;whiteSpace=wrap;html=1;fillColor=#dae8fc;strokeColor=#6c8ebf;" parent="1" vertex="1">
          <mxGeometry x="320" y="400" width="80" height="40" as="geometry" />
        </mxCell>
        <mxCell id="d3JcHvjQmQeXnqKImObB-53" style="edgeStyle=orthogonalEdgeStyle;rounded=0;orthogonalLoop=1;jettySize=auto;html=1;exitX=1;exitY=0.5;exitDx=0;exitDy=0;entryX=0;entryY=0.5;entryDx=0;entryDy=0;fillColor=#dae8fc;strokeColor=#6c8ebf;" parent="1" source="d3JcHvjQmQeXnqKImObB-45" target="d3JcHvjQmQeXnqKImObB-47" edge="1">
          <mxGeometry relative="1" as="geometry" />
        </mxCell>
        <mxCell id="d3JcHvjQmQeXnqKImObB-57" style="edgeStyle=orthogonalEdgeStyle;rounded=0;orthogonalLoop=1;jettySize=auto;html=1;exitX=0.5;exitY=0;exitDx=0;exitDy=0;entryX=0.5;entryY=1;entryDx=0;entryDy=0;fillColor=#dae8fc;strokeColor=#6c8ebf;" parent="1" source="d3JcHvjQmQeXnqKImObB-45" target="d3JcHvjQmQeXnqKImObB-46" edge="1">
          <mxGeometry relative="1" as="geometry" />
        </mxCell>
        <mxCell id="d3JcHvjQmQeXnqKImObB-45" value="風化的&lt;br&gt;憤怒之地" style="rounded=0;whiteSpace=wrap;html=1;fillColor=#dae8fc;strokeColor=#6c8ebf;" parent="1" vertex="1">
          <mxGeometry x="440" y="480" width="80" height="40" as="geometry" />
        </mxCell>
        <mxCell id="d3JcHvjQmQeXnqKImObB-46" value="風化的憤怒與悲傷之地" style="rounded=0;whiteSpace=wrap;html=1;fillColor=#dae8fc;strokeColor=#6c8ebf;" parent="1" vertex="1">
          <mxGeometry x="440" y="400" width="80" height="40" as="geometry" />
        </mxCell>
        <mxCell id="d3JcHvjQmQeXnqKImObB-54" style="edgeStyle=orthogonalEdgeStyle;rounded=0;orthogonalLoop=1;jettySize=auto;html=1;exitX=1;exitY=0.5;exitDx=0;exitDy=0;entryX=0;entryY=0.5;entryDx=0;entryDy=0;fillColor=#dae8fc;strokeColor=#6c8ebf;" parent="1" source="d3JcHvjQmQeXnqKImObB-47" target="d3JcHvjQmQeXnqKImObB-49" edge="1">
          <mxGeometry relative="1" as="geometry" />
        </mxCell>
        <mxCell id="d3JcHvjQmQeXnqKImObB-58" style="edgeStyle=orthogonalEdgeStyle;rounded=0;orthogonalLoop=1;jettySize=auto;html=1;exitX=0.5;exitY=0;exitDx=0;exitDy=0;entryX=0.5;entryY=1;entryDx=0;entryDy=0;fillColor=#dae8fc;strokeColor=#6c8ebf;" parent="1" source="d3JcHvjQmQeXnqKImObB-47" target="d3JcHvjQmQeXnqKImObB-48" edge="1">
          <mxGeometry relative="1" as="geometry" />
        </mxCell>
        <mxCell id="d3JcHvjQmQeXnqKImObB-47" value="風化的&lt;br&gt;悲傷之地" style="rounded=0;whiteSpace=wrap;html=1;fillColor=#dae8fc;strokeColor=#6c8ebf;" parent="1" vertex="1">
          <mxGeometry x="560" y="480" width="80" height="40" as="geometry" />
        </mxCell>
        <mxCell id="d3JcHvjQmQeXnqKImObB-48" value="風化的悲傷與歡樂之地" style="rounded=0;whiteSpace=wrap;html=1;fillColor=#dae8fc;strokeColor=#6c8ebf;" parent="1" vertex="1">
          <mxGeometry x="560" y="400" width="80" height="40" as="geometry" />
        </mxCell>
        <mxCell id="d3JcHvjQmQeXnqKImObB-92" style="edgeStyle=orthogonalEdgeStyle;rounded=0;orthogonalLoop=1;jettySize=auto;html=1;exitX=1;exitY=0.5;exitDx=0;exitDy=0;entryX=0;entryY=0.5;entryDx=0;entryDy=0;fillColor=#dae8fc;strokeColor=#6c8ebf;" parent="1" source="d3JcHvjQmQeXnqKImObB-49" target="d3JcHvjQmQeXnqKImObB-51" edge="1">
          <mxGeometry relative="1" as="geometry" />
        </mxCell>
        <mxCell id="d3JcHvjQmQeXnqKImObB-49" value="風化的&lt;br&gt;歡樂之地" style="rounded=0;whiteSpace=wrap;html=1;fillColor=#dae8fc;strokeColor=#6c8ebf;" parent="1" vertex="1">
          <mxGeometry x="680" y="480" width="80" height="40" as="geometry" />
        </mxCell>
        <mxCell id="d3JcHvjQmQeXnqKImObB-51" value="隱藏的湖水邊" style="rounded=0;whiteSpace=wrap;html=1;fillColor=#dae8fc;strokeColor=#6c8ebf;" parent="1" vertex="1">
          <mxGeometry x="800" y="480" width="80" height="40" as="geometry" />
        </mxCell>
        <mxCell id="d3JcHvjQmQeXnqKImObB-78" style="edgeStyle=orthogonalEdgeStyle;rounded=0;orthogonalLoop=1;jettySize=auto;html=1;exitX=1;exitY=0.5;exitDx=0;exitDy=0;fillColor=#dae8fc;strokeColor=#6c8ebf;" parent="1" source="d3JcHvjQmQeXnqKImObB-59" target="d3JcHvjQmQeXnqKImObB-60" edge="1">
          <mxGeometry relative="1" as="geometry" />
        </mxCell>
        <mxCell id="uA6WqvITDLGF0Sce4mHZ-5" value="&lt;div&gt;N&lt;br&gt;&lt;/div&gt;&lt;div&gt;P&lt;/div&gt;&lt;div&gt;C&lt;/div&gt;&lt;div&gt;奇&lt;div&gt;馬&lt;/div&gt;&lt;/div&gt;" style="edgeLabel;html=1;align=center;verticalAlign=middle;resizable=0;points=[];fontColor=#6C8EBF;" parent="d3JcHvjQmQeXnqKImObB-78" vertex="1" connectable="0">
          <mxGeometry x="-0.1286" relative="1" as="geometry">
            <mxPoint as="offset" />
          </mxGeometry>
        </mxCell>
        <mxCell id="d3JcHvjQmQeXnqKImObB-59" value="湖水邊" style="rounded=0;whiteSpace=wrap;html=1;fillColor=#dae8fc;strokeColor=#6c8ebf;" parent="1" vertex="1">
          <mxGeometry x="320" y="560" width="80" height="40" as="geometry" />
        </mxCell>
        <mxCell id="d3JcHvjQmQeXnqKImObB-79" style="edgeStyle=orthogonalEdgeStyle;rounded=0;orthogonalLoop=1;jettySize=auto;html=1;exitX=1;exitY=0.5;exitDx=0;exitDy=0;entryX=0;entryY=0.5;entryDx=0;entryDy=0;fillColor=#f8cecc;strokeColor=#b85450;" parent="1" source="d3JcHvjQmQeXnqKImObB-60" target="d3JcHvjQmQeXnqKImObB-61" edge="1">
          <mxGeometry relative="1" as="geometry" />
        </mxCell>
        <mxCell id="d3JcHvjQmQeXnqKImObB-86" style="edgeStyle=orthogonalEdgeStyle;rounded=0;orthogonalLoop=1;jettySize=auto;html=1;exitX=0.75;exitY=1;exitDx=0;exitDy=0;entryX=0;entryY=0.5;entryDx=0;entryDy=0;fillColor=#f8cecc;strokeColor=#b85450;" parent="1" source="d3JcHvjQmQeXnqKImObB-60" target="d3JcHvjQmQeXnqKImObB-80" edge="1">
          <mxGeometry relative="1" as="geometry" />
        </mxCell>
        <mxCell id="d3JcHvjQmQeXnqKImObB-98" style="edgeStyle=orthogonalEdgeStyle;rounded=0;orthogonalLoop=1;jettySize=auto;html=1;exitX=0.75;exitY=1;exitDx=0;exitDy=0;entryX=0.5;entryY=1;entryDx=0;entryDy=0;fillColor=#f8cecc;strokeColor=#b85450;dashed=1;" parent="1" source="d3JcHvjQmQeXnqKImObB-60" target="d3JcHvjQmQeXnqKImObB-84" edge="1">
          <mxGeometry relative="1" as="geometry" />
        </mxCell>
        <mxCell id="d3JcHvjQmQeXnqKImObB-99" value="NPC&lt;div&gt;里諾&lt;/div&gt;" style="edgeLabel;html=1;align=center;verticalAlign=middle;resizable=0;points=[];rotation=0;fontColor=#B85450;" parent="d3JcHvjQmQeXnqKImObB-98" vertex="1" connectable="0">
          <mxGeometry x="-0.7753" y="2" relative="1" as="geometry">
            <mxPoint x="-2" y="73" as="offset" />
          </mxGeometry>
        </mxCell>
        <mxCell id="Q3DIbl1BtEreVl4ZhK06-28" style="edgeStyle=orthogonalEdgeStyle;rounded=0;orthogonalLoop=1;jettySize=auto;html=1;exitX=0.5;exitY=1;exitDx=0;exitDy=0;entryX=0;entryY=0.5;entryDx=0;entryDy=0;fillColor=#dae8fc;strokeColor=#6c8ebf;" parent="1" source="d3JcHvjQmQeXnqKImObB-59" target="Q3DIbl1BtEreVl4ZhK06-2" edge="1">
          <mxGeometry relative="1" as="geometry" />
        </mxCell>
        <mxCell id="d3JcHvjQmQeXnqKImObB-60" value="海市蜃樓絕壁" style="rounded=0;whiteSpace=wrap;html=1;fillColor=#f8cecc;strokeColor=#b85450;fontSize=12;" parent="1" vertex="1">
          <mxGeometry x="440" y="560" width="80" height="40" as="geometry" />
        </mxCell>
        <mxCell id="d3JcHvjQmQeXnqKImObB-68" style="edgeStyle=orthogonalEdgeStyle;rounded=0;orthogonalLoop=1;jettySize=auto;html=1;exitX=1;exitY=0.5;exitDx=0;exitDy=0;entryX=0;entryY=0.5;entryDx=0;entryDy=0;fillColor=#d5e8d4;strokeColor=#82b366;" parent="1" source="d3JcHvjQmQeXnqKImObB-61" target="d3JcHvjQmQeXnqKImObB-63" edge="1">
          <mxGeometry relative="1" as="geometry" />
        </mxCell>
        <mxCell id="d3JcHvjQmQeXnqKImObB-61" value="洞穴入口" style="rounded=0;whiteSpace=wrap;html=1;fillColor=#d5e8d4;strokeColor=#82b366;" parent="1" vertex="1">
          <mxGeometry x="800" y="560" width="80" height="40" as="geometry" />
        </mxCell>
        <mxCell id="d3JcHvjQmQeXnqKImObB-69" style="edgeStyle=orthogonalEdgeStyle;rounded=0;orthogonalLoop=1;jettySize=auto;html=1;exitX=1;exitY=0.5;exitDx=0;exitDy=0;entryX=0;entryY=0.5;entryDx=0;entryDy=0;fillColor=#d5e8d4;strokeColor=#82b366;" parent="1" source="d3JcHvjQmQeXnqKImObB-63" target="d3JcHvjQmQeXnqKImObB-64" edge="1">
          <mxGeometry relative="1" as="geometry" />
        </mxCell>
        <mxCell id="d3JcHvjQmQeXnqKImObB-70" style="edgeStyle=orthogonalEdgeStyle;rounded=0;orthogonalLoop=1;jettySize=auto;html=1;exitX=1;exitY=0.5;exitDx=0;exitDy=0;entryX=0;entryY=0.5;entryDx=0;entryDy=0;fillColor=#d5e8d4;strokeColor=#82b366;" parent="1" source="d3JcHvjQmQeXnqKImObB-63" target="d3JcHvjQmQeXnqKImObB-66" edge="1">
          <mxGeometry relative="1" as="geometry" />
        </mxCell>
        <mxCell id="d3JcHvjQmQeXnqKImObB-63" value="三岔路 1" style="rounded=0;whiteSpace=wrap;html=1;fillColor=#d5e8d4;strokeColor=#82b366;" parent="1" vertex="1">
          <mxGeometry x="920" y="560" width="80" height="40" as="geometry" />
        </mxCell>
        <mxCell id="d3JcHvjQmQeXnqKImObB-64" value="洞穴西側路 1/2" style="rounded=0;whiteSpace=wrap;html=1;fillColor=#d5e8d4;strokeColor=#82b366;" parent="1" vertex="1">
          <mxGeometry x="1040" y="480" width="80" height="40" as="geometry" />
        </mxCell>
        <mxCell id="d3JcHvjQmQeXnqKImObB-66" value="洞穴東側路 1/2" style="rounded=0;whiteSpace=wrap;html=1;fillColor=#d5e8d4;strokeColor=#82b366;" parent="1" vertex="1">
          <mxGeometry x="1040" y="640" width="80" height="40" as="geometry" />
        </mxCell>
        <mxCell id="d3JcHvjQmQeXnqKImObB-75" style="edgeStyle=orthogonalEdgeStyle;rounded=0;orthogonalLoop=1;jettySize=auto;html=1;exitX=1;exitY=0.5;exitDx=0;exitDy=0;entryX=0;entryY=0.5;entryDx=0;entryDy=0;fillColor=#d5e8d4;strokeColor=#82b366;" parent="1" source="d3JcHvjQmQeXnqKImObB-71" target="d3JcHvjQmQeXnqKImObB-73" edge="1">
          <mxGeometry relative="1" as="geometry" />
        </mxCell>
        <mxCell id="d3JcHvjQmQeXnqKImObB-76" style="edgeStyle=orthogonalEdgeStyle;rounded=0;orthogonalLoop=1;jettySize=auto;html=1;exitX=1;exitY=0.5;exitDx=0;exitDy=0;entryX=0;entryY=0.5;entryDx=0;entryDy=0;fillColor=#d5e8d4;strokeColor=#82b366;" parent="1" source="d3JcHvjQmQeXnqKImObB-71" target="d3JcHvjQmQeXnqKImObB-74" edge="1">
          <mxGeometry relative="1" as="geometry" />
        </mxCell>
        <mxCell id="d3JcHvjQmQeXnqKImObB-77" style="edgeStyle=orthogonalEdgeStyle;rounded=0;orthogonalLoop=1;jettySize=auto;html=1;exitX=1;exitY=0.5;exitDx=0;exitDy=0;entryX=0;entryY=0.5;entryDx=0;entryDy=0;fillColor=#d5e8d4;strokeColor=#82b366;" parent="1" source="d3JcHvjQmQeXnqKImObB-71" target="d3JcHvjQmQeXnqKImObB-72" edge="1">
          <mxGeometry relative="1" as="geometry" />
        </mxCell>
        <mxCell id="d3JcHvjQmQeXnqKImObB-71" value="三岔路 2" style="rounded=0;whiteSpace=wrap;html=1;fillColor=#d5e8d4;strokeColor=#82b366;" parent="1" vertex="1">
          <mxGeometry x="1040" y="560" width="80" height="40" as="geometry" />
        </mxCell>
        <mxCell id="d3JcHvjQmQeXnqKImObB-72" value="洞穴下側" style="rounded=0;whiteSpace=wrap;html=1;fillColor=#d5e8d4;strokeColor=#82b366;" parent="1" vertex="1">
          <mxGeometry x="1160" y="640" width="80" height="40" as="geometry" />
        </mxCell>
        <mxCell id="d3JcHvjQmQeXnqKImObB-73" value="洞穴上側" style="rounded=0;whiteSpace=wrap;html=1;fillColor=#d5e8d4;strokeColor=#82b366;" parent="1" vertex="1">
          <mxGeometry x="1160" y="480" width="80" height="40" as="geometry" />
        </mxCell>
        <mxCell id="d3JcHvjQmQeXnqKImObB-74" value="洞穴深處" style="rounded=0;whiteSpace=wrap;html=1;fillColor=#d5e8d4;strokeColor=#82b366;" parent="1" vertex="1">
          <mxGeometry x="1160" y="560" width="80" height="40" as="geometry" />
        </mxCell>
        <mxCell id="d3JcHvjQmQeXnqKImObB-87" style="edgeStyle=orthogonalEdgeStyle;rounded=0;orthogonalLoop=1;jettySize=auto;html=1;exitX=0.5;exitY=0;exitDx=0;exitDy=0;entryX=0.5;entryY=1;entryDx=0;entryDy=0;fillColor=#f8cecc;strokeColor=#b85450;" parent="1" source="d3JcHvjQmQeXnqKImObB-80" target="d3JcHvjQmQeXnqKImObB-81" edge="1">
          <mxGeometry relative="1" as="geometry" />
        </mxCell>
        <mxCell id="d3JcHvjQmQeXnqKImObB-88" style="edgeStyle=orthogonalEdgeStyle;rounded=0;orthogonalLoop=1;jettySize=auto;html=1;exitX=1;exitY=0.5;exitDx=0;exitDy=0;entryX=0;entryY=0.5;entryDx=0;entryDy=0;fillColor=#f8cecc;strokeColor=#b85450;" parent="1" source="d3JcHvjQmQeXnqKImObB-80" target="d3JcHvjQmQeXnqKImObB-82" edge="1">
          <mxGeometry relative="1" as="geometry" />
        </mxCell>
        <mxCell id="d3JcHvjQmQeXnqKImObB-80" value="岩石領土" style="rounded=0;whiteSpace=wrap;html=1;fillColor=#f8cecc;strokeColor=#b85450;" parent="1" vertex="1">
          <mxGeometry x="800" y="720" width="80" height="40" as="geometry" />
        </mxCell>
        <mxCell id="d3JcHvjQmQeXnqKImObB-81" value="岩石和火焰&lt;br&gt;領土" style="rounded=0;whiteSpace=wrap;html=1;fillColor=#f8cecc;strokeColor=#b85450;" parent="1" vertex="1">
          <mxGeometry x="800" y="640" width="80" height="40" as="geometry" />
        </mxCell>
        <mxCell id="d3JcHvjQmQeXnqKImObB-89" style="edgeStyle=orthogonalEdgeStyle;rounded=0;orthogonalLoop=1;jettySize=auto;html=1;exitX=0.5;exitY=0;exitDx=0;exitDy=0;entryX=0.5;entryY=1;entryDx=0;entryDy=0;fillColor=#f8cecc;strokeColor=#b85450;" parent="1" source="d3JcHvjQmQeXnqKImObB-82" target="d3JcHvjQmQeXnqKImObB-83" edge="1">
          <mxGeometry relative="1" as="geometry" />
        </mxCell>
        <mxCell id="d3JcHvjQmQeXnqKImObB-90" style="edgeStyle=orthogonalEdgeStyle;rounded=0;orthogonalLoop=1;jettySize=auto;html=1;exitX=1;exitY=0.5;exitDx=0;exitDy=0;entryX=0;entryY=0.5;entryDx=0;entryDy=0;fillColor=#f8cecc;strokeColor=#b85450;" parent="1" source="d3JcHvjQmQeXnqKImObB-82" target="d3JcHvjQmQeXnqKImObB-84" edge="1">
          <mxGeometry relative="1" as="geometry" />
        </mxCell>
        <mxCell id="d3JcHvjQmQeXnqKImObB-82" value="火焰領土" style="rounded=0;whiteSpace=wrap;html=1;fillColor=#f8cecc;strokeColor=#b85450;" parent="1" vertex="1">
          <mxGeometry x="920" y="720" width="80" height="40" as="geometry" />
        </mxCell>
        <mxCell id="d3JcHvjQmQeXnqKImObB-83" value="火焰和靈魂&lt;br&gt;領土" style="rounded=0;whiteSpace=wrap;html=1;fillColor=#f8cecc;strokeColor=#b85450;" parent="1" vertex="1">
          <mxGeometry x="920" y="640" width="80" height="40" as="geometry" />
        </mxCell>
        <mxCell id="d3JcHvjQmQeXnqKImObB-91" style="edgeStyle=orthogonalEdgeStyle;rounded=0;orthogonalLoop=1;jettySize=auto;html=1;exitX=1;exitY=0.5;exitDx=0;exitDy=0;entryX=0;entryY=0.5;entryDx=0;entryDy=0;fillColor=#f8cecc;strokeColor=#b85450;" parent="1" source="d3JcHvjQmQeXnqKImObB-84" target="d3JcHvjQmQeXnqKImObB-85" edge="1">
          <mxGeometry relative="1" as="geometry" />
        </mxCell>
        <mxCell id="d3JcHvjQmQeXnqKImObB-84" value="靈魂領土" style="rounded=0;whiteSpace=wrap;html=1;fillColor=#f8cecc;strokeColor=#b85450;" parent="1" vertex="1">
          <mxGeometry x="1040" y="720" width="80" height="40" as="geometry" />
        </mxCell>
        <mxCell id="d3JcHvjQmQeXnqKImObB-85" value="隱藏的&lt;br&gt;火焰地帶" style="rounded=0;whiteSpace=wrap;html=1;fillColor=#f8cecc;strokeColor=#b85450;" parent="1" vertex="1">
          <mxGeometry x="1160" y="720" width="80" height="40" as="geometry" />
        </mxCell>
        <mxCell id="d3JcHvjQmQeXnqKImObB-102" value="奧術之河" style="text;html=1;align=center;verticalAlign=middle;resizable=0;points=[];autosize=1;strokeColor=none;fillColor=none;fontSize=32;fontStyle=1" parent="1" vertex="1">
          <mxGeometry x="50" y="50" width="150" height="50" as="geometry" />
        </mxCell>
        <mxCell id="Q3DIbl1BtEreVl4ZhK06-12" style="edgeStyle=orthogonalEdgeStyle;rounded=0;orthogonalLoop=1;jettySize=auto;html=1;exitX=1;exitY=0.5;exitDx=0;exitDy=0;entryX=0;entryY=0.5;entryDx=0;entryDy=0;fillColor=#b1ddf0;strokeColor=#10739e;" parent="1" source="Q3DIbl1BtEreVl4ZhK06-2" target="Q3DIbl1BtEreVl4ZhK06-3" edge="1">
          <mxGeometry relative="1" as="geometry" />
        </mxCell>
        <mxCell id="Q3DIbl1BtEreVl4ZhK06-2" value="瀑布下側" style="rounded=0;whiteSpace=wrap;html=1;fillColor=#b1ddf0;strokeColor=#10739e;" parent="1" vertex="1">
          <mxGeometry x="440" y="920" width="80" height="40" as="geometry" />
        </mxCell>
        <mxCell id="Q3DIbl1BtEreVl4ZhK06-13" style="edgeStyle=orthogonalEdgeStyle;rounded=0;orthogonalLoop=1;jettySize=auto;html=1;exitX=1;exitY=0.5;exitDx=0;exitDy=0;fillColor=#b1ddf0;strokeColor=#10739e;" parent="1" source="Q3DIbl1BtEreVl4ZhK06-3" target="Q3DIbl1BtEreVl4ZhK06-4" edge="1">
          <mxGeometry relative="1" as="geometry" />
        </mxCell>
        <mxCell id="Q3DIbl1BtEreVl4ZhK06-3" value="激流地帶&lt;br&gt;3/2/1" style="rounded=0;whiteSpace=wrap;html=1;fillColor=#b1ddf0;strokeColor=#10739e;" parent="1" vertex="1">
          <mxGeometry x="560" y="920" width="80" height="40" as="geometry" />
        </mxCell>
        <mxCell id="Q3DIbl1BtEreVl4ZhK06-14" style="edgeStyle=orthogonalEdgeStyle;rounded=0;orthogonalLoop=1;jettySize=auto;html=1;exitX=1;exitY=0.5;exitDx=0;exitDy=0;entryX=0;entryY=0.5;entryDx=0;entryDy=0;fillColor=#b1ddf0;strokeColor=#10739e;" parent="1" source="Q3DIbl1BtEreVl4ZhK06-4" target="Q3DIbl1BtEreVl4ZhK06-5" edge="1">
          <mxGeometry relative="1" as="geometry" />
        </mxCell>
        <mxCell id="Q3DIbl1BtEreVl4ZhK06-4" value="啾啾村入口" style="rounded=0;whiteSpace=wrap;html=1;fillColor=#b1ddf0;strokeColor=#10739e;" parent="1" vertex="1">
          <mxGeometry x="680" y="920" width="80" height="40" as="geometry" />
        </mxCell>
        <mxCell id="Q3DIbl1BtEreVl4ZhK06-20" style="edgeStyle=orthogonalEdgeStyle;rounded=0;orthogonalLoop=1;jettySize=auto;html=1;exitX=0.5;exitY=0;exitDx=0;exitDy=0;entryX=0.5;entryY=1;entryDx=0;entryDy=0;fillColor=#b1ddf0;strokeColor=#10739e;" parent="1" source="Q3DIbl1BtEreVl4ZhK06-5" target="Q3DIbl1BtEreVl4ZhK06-11" edge="1">
          <mxGeometry relative="1" as="geometry" />
        </mxCell>
        <mxCell id="Q3DIbl1BtEreVl4ZhK06-25" style="edgeStyle=orthogonalEdgeStyle;rounded=0;orthogonalLoop=1;jettySize=auto;html=1;exitX=1;exitY=0.5;exitDx=0;exitDy=0;entryX=0;entryY=0.5;entryDx=0;entryDy=0;fillColor=#b1ddf0;strokeColor=#10739e;" parent="1" source="Q3DIbl1BtEreVl4ZhK06-5" target="Q3DIbl1BtEreVl4ZhK06-6" edge="1">
          <mxGeometry relative="1" as="geometry" />
        </mxCell>
        <mxCell id="4pOkDqGrPwap0Yr39oTi-7" style="edgeStyle=orthogonalEdgeStyle;rounded=0;orthogonalLoop=1;jettySize=auto;html=1;exitX=0.5;exitY=1;exitDx=0;exitDy=0;entryX=0;entryY=0.5;entryDx=0;entryDy=0;fillColor=#b1ddf0;strokeColor=#10739e;" parent="1" source="Q3DIbl1BtEreVl4ZhK06-5" target="4pOkDqGrPwap0Yr39oTi-6" edge="1">
          <mxGeometry relative="1" as="geometry" />
        </mxCell>
        <mxCell id="4pOkDqGrPwap0Yr39oTi-8" style="edgeStyle=orthogonalEdgeStyle;rounded=0;orthogonalLoop=1;jettySize=auto;html=1;exitX=0.75;exitY=1;exitDx=0;exitDy=0;entryX=0;entryY=0.5;entryDx=0;entryDy=0;fillColor=#b1ddf0;strokeColor=#10739e;" parent="1" source="Q3DIbl1BtEreVl4ZhK06-5" target="4pOkDqGrPwap0Yr39oTi-3" edge="1">
          <mxGeometry relative="1" as="geometry" />
        </mxCell>
        <mxCell id="Q3DIbl1BtEreVl4ZhK06-5" value="啾啾村" style="rounded=0;whiteSpace=wrap;html=1;fillColor=#b1ddf0;strokeColor=#10739e;fontStyle=1;strokeWidth=2;" parent="1" vertex="1">
          <mxGeometry x="800" y="920" width="80" height="40" as="geometry" />
        </mxCell>
        <mxCell id="Q3DIbl1BtEreVl4ZhK06-16" style="edgeStyle=orthogonalEdgeStyle;rounded=0;orthogonalLoop=1;jettySize=auto;html=1;exitX=1;exitY=0.5;exitDx=0;exitDy=0;entryX=0;entryY=0.5;entryDx=0;entryDy=0;fillColor=#b1ddf0;strokeColor=#10739e;" parent="1" source="Q3DIbl1BtEreVl4ZhK06-6" target="Q3DIbl1BtEreVl4ZhK06-7" edge="1">
          <mxGeometry relative="1" as="geometry" />
        </mxCell>
        <mxCell id="Q3DIbl1BtEreVl4ZhK06-6" value="園林入口" style="rounded=0;whiteSpace=wrap;html=1;fillColor=#b1ddf0;strokeColor=#10739e;" parent="1" vertex="1">
          <mxGeometry x="920" y="1000" width="80" height="40" as="geometry" />
        </mxCell>
        <mxCell id="Q3DIbl1BtEreVl4ZhK06-17" style="edgeStyle=orthogonalEdgeStyle;rounded=0;orthogonalLoop=1;jettySize=auto;html=1;exitX=1;exitY=0.5;exitDx=0;exitDy=0;entryX=0;entryY=0.5;entryDx=0;entryDy=0;fillColor=#b1ddf0;strokeColor=#10739e;" parent="1" source="Q3DIbl1BtEreVl4ZhK06-7" target="Q3DIbl1BtEreVl4ZhK06-8" edge="1">
          <mxGeometry relative="1" as="geometry" />
        </mxCell>
        <mxCell id="Q3DIbl1BtEreVl4ZhK06-7" value="繽紛森林地帶&lt;br&gt;1/2/3" style="rounded=0;whiteSpace=wrap;html=1;fillColor=#b1ddf0;strokeColor=#10739e;" parent="1" vertex="1">
          <mxGeometry x="1040" y="1000" width="80" height="40" as="geometry" />
        </mxCell>
        <mxCell id="Q3DIbl1BtEreVl4ZhK06-18" style="edgeStyle=orthogonalEdgeStyle;rounded=0;orthogonalLoop=1;jettySize=auto;html=1;exitX=1;exitY=0.5;exitDx=0;exitDy=0;entryX=0;entryY=0.5;entryDx=0;entryDy=0;fillColor=#b1ddf0;strokeColor=#10739e;" parent="1" source="Q3DIbl1BtEreVl4ZhK06-8" target="Q3DIbl1BtEreVl4ZhK06-9" edge="1">
          <mxGeometry relative="1" as="geometry" />
        </mxCell>
        <mxCell id="Q3DIbl1BtEreVl4ZhK06-8" value="五色園林深處" style="rounded=0;whiteSpace=wrap;html=1;fillColor=#b1ddf0;strokeColor=#10739e;" parent="1" vertex="1">
          <mxGeometry x="1160" y="1000" width="80" height="40" as="geometry" />
        </mxCell>
        <mxCell id="Q3DIbl1BtEreVl4ZhK06-19" style="edgeStyle=orthogonalEdgeStyle;rounded=0;orthogonalLoop=1;jettySize=auto;html=1;exitX=1;exitY=0.5;exitDx=0;exitDy=0;entryX=0;entryY=0.5;entryDx=0;entryDy=0;fillColor=#b1ddf0;strokeColor=#10739e;" parent="1" source="Q3DIbl1BtEreVl4ZhK06-9" target="Q3DIbl1BtEreVl4ZhK06-10" edge="1">
          <mxGeometry relative="1" as="geometry" />
        </mxCell>
        <mxCell id="Q3DIbl1BtEreVl4ZhK06-9" value="橢圓森林&lt;div&gt;1/2&lt;/div&gt;" style="rounded=0;whiteSpace=wrap;html=1;fillColor=#b1ddf0;strokeColor=#10739e;" parent="1" vertex="1">
          <mxGeometry x="1280" y="1000" width="80" height="40" as="geometry" />
        </mxCell>
        <mxCell id="Q3DIbl1BtEreVl4ZhK06-34" style="edgeStyle=orthogonalEdgeStyle;rounded=0;orthogonalLoop=1;jettySize=auto;html=1;exitX=1;exitY=0.5;exitDx=0;exitDy=0;entryX=0;entryY=0.5;entryDx=0;entryDy=0;fillColor=#b1ddf0;strokeColor=#10739e;" parent="1" source="Q3DIbl1BtEreVl4ZhK06-10" target="Q3DIbl1BtEreVl4ZhK06-33" edge="1">
          <mxGeometry relative="1" as="geometry" />
        </mxCell>
        <mxCell id="Q3DIbl1BtEreVl4ZhK06-10" value="正圓森林&lt;div&gt;1/2&lt;/div&gt;" style="rounded=0;whiteSpace=wrap;html=1;fillColor=#b1ddf0;strokeColor=#10739e;" parent="1" vertex="1">
          <mxGeometry x="1400" y="1000" width="80" height="40" as="geometry" />
        </mxCell>
        <mxCell id="Q3DIbl1BtEreVl4ZhK06-29" style="edgeStyle=orthogonalEdgeStyle;rounded=0;orthogonalLoop=1;jettySize=auto;html=1;exitX=0;exitY=0.5;exitDx=0;exitDy=0;entryX=1;entryY=0.5;entryDx=0;entryDy=0;fillColor=#b1ddf0;strokeColor=#10739e;" parent="1" source="Q3DIbl1BtEreVl4ZhK06-11" target="Q3DIbl1BtEreVl4ZhK06-21" edge="1">
          <mxGeometry relative="1" as="geometry" />
        </mxCell>
        <mxCell id="Q3DIbl1BtEreVl4ZhK06-31" style="edgeStyle=orthogonalEdgeStyle;rounded=0;orthogonalLoop=1;jettySize=auto;html=1;exitX=1;exitY=0.5;exitDx=0;exitDy=0;entryX=0;entryY=0.5;entryDx=0;entryDy=0;fillColor=#b1ddf0;strokeColor=#10739e;" parent="1" source="Q3DIbl1BtEreVl4ZhK06-11" target="Q3DIbl1BtEreVl4ZhK06-23" edge="1">
          <mxGeometry relative="1" as="geometry" />
        </mxCell>
        <mxCell id="Q3DIbl1BtEreVl4ZhK06-11" value="鯨魚山入口" style="rounded=0;whiteSpace=wrap;html=1;fillColor=#b1ddf0;strokeColor=#10739e;" parent="1" vertex="1">
          <mxGeometry x="800" y="840" width="80" height="40" as="geometry" />
        </mxCell>
        <mxCell id="Q3DIbl1BtEreVl4ZhK06-30" style="edgeStyle=orthogonalEdgeStyle;rounded=0;orthogonalLoop=1;jettySize=auto;html=1;exitX=0;exitY=0.5;exitDx=0;exitDy=0;entryX=1;entryY=0.5;entryDx=0;entryDy=0;fillColor=#b1ddf0;strokeColor=#10739e;" parent="1" source="Q3DIbl1BtEreVl4ZhK06-21" target="Q3DIbl1BtEreVl4ZhK06-22" edge="1">
          <mxGeometry relative="1" as="geometry" />
        </mxCell>
        <mxCell id="Q3DIbl1BtEreVl4ZhK06-21" value="鯨魚山山腰 1" style="rounded=0;whiteSpace=wrap;html=1;fillColor=#b1ddf0;strokeColor=#10739e;" parent="1" vertex="1">
          <mxGeometry x="680" y="840" width="80" height="40" as="geometry" />
        </mxCell>
        <mxCell id="Q3DIbl1BtEreVl4ZhK06-22" value="鯨魚山山頂" style="rounded=0;whiteSpace=wrap;html=1;fillColor=#b1ddf0;strokeColor=#10739e;" parent="1" vertex="1">
          <mxGeometry x="560" y="840" width="80" height="40" as="geometry" />
        </mxCell>
        <mxCell id="Q3DIbl1BtEreVl4ZhK06-32" style="edgeStyle=orthogonalEdgeStyle;rounded=0;orthogonalLoop=1;jettySize=auto;html=1;exitX=1;exitY=0.5;exitDx=0;exitDy=0;entryX=0;entryY=0.5;entryDx=0;entryDy=0;fillColor=#b1ddf0;strokeColor=#10739e;" parent="1" source="Q3DIbl1BtEreVl4ZhK06-23" target="Q3DIbl1BtEreVl4ZhK06-24" edge="1">
          <mxGeometry relative="1" as="geometry" />
        </mxCell>
        <mxCell id="Q3DIbl1BtEreVl4ZhK06-23" value="鯨魚山山腰 2" style="rounded=0;whiteSpace=wrap;html=1;fillColor=#b1ddf0;strokeColor=#10739e;" parent="1" vertex="1">
          <mxGeometry x="920" y="840" width="80" height="40" as="geometry" />
        </mxCell>
        <mxCell id="Q3DIbl1BtEreVl4ZhK06-24" value="巨大的尾巴" style="rounded=0;whiteSpace=wrap;html=1;fillColor=#b1ddf0;strokeColor=#10739e;" parent="1" vertex="1">
          <mxGeometry x="1040" y="840" width="80" height="40" as="geometry" />
        </mxCell>
        <mxCell id="Q3DIbl1BtEreVl4ZhK06-35" style="edgeStyle=orthogonalEdgeStyle;rounded=0;orthogonalLoop=1;jettySize=auto;html=1;exitX=0.5;exitY=0;exitDx=0;exitDy=0;entryX=0.5;entryY=0;entryDx=0;entryDy=0;fillColor=#b1ddf0;strokeColor=#10739e;" parent="1" source="Q3DIbl1BtEreVl4ZhK06-33" target="Q3DIbl1BtEreVl4ZhK06-11" edge="1">
          <mxGeometry relative="1" as="geometry" />
        </mxCell>
        <mxCell id="Q3DIbl1BtEreVl4ZhK06-33" value="揪樂森林深處" style="rounded=0;whiteSpace=wrap;html=1;fillColor=#b1ddf0;strokeColor=#10739e;" parent="1" vertex="1">
          <mxGeometry x="1520" y="1000" width="80" height="40" as="geometry" />
        </mxCell>
        <mxCell id="4pOkDqGrPwap0Yr39oTi-3" value="村莊孤寂處" style="rounded=0;whiteSpace=wrap;html=1;fillColor=#b1ddf0;strokeColor=#10739e;" parent="1" vertex="1">
          <mxGeometry x="920" y="1080" width="80" height="40" as="geometry" />
        </mxCell>
        <mxCell id="4pOkDqGrPwap0Yr39oTi-10" style="edgeStyle=orthogonalEdgeStyle;rounded=0;orthogonalLoop=1;jettySize=auto;html=1;exitX=1;exitY=0.5;exitDx=0;exitDy=0;fillColor=#b0e3e6;strokeColor=#0e8088;" parent="1" source="4pOkDqGrPwap0Yr39oTi-6" target="4pOkDqGrPwap0Yr39oTi-9" edge="1">
          <mxGeometry relative="1" as="geometry" />
        </mxCell>
        <mxCell id="4pOkDqGrPwap0Yr39oTi-6" value="鯨魚山後方" style="rounded=0;whiteSpace=wrap;html=1;fillColor=#b1ddf0;strokeColor=#10739e;" parent="1" vertex="1">
          <mxGeometry x="920" y="1160" width="80" height="40" as="geometry" />
        </mxCell>
        <mxCell id="4pOkDqGrPwap0Yr39oTi-14" style="edgeStyle=orthogonalEdgeStyle;rounded=0;orthogonalLoop=1;jettySize=auto;html=1;exitX=1;exitY=0.5;exitDx=0;exitDy=0;entryX=0;entryY=0.5;entryDx=0;entryDy=0;fillColor=#d0cee2;strokeColor=#56517e;" parent="1" source="4pOkDqGrPwap0Yr39oTi-9" target="4pOkDqGrPwap0Yr39oTi-11" edge="1">
          <mxGeometry relative="1" as="geometry" />
        </mxCell>
        <mxCell id="4pOkDqGrPwap0Yr39oTi-23" style="edgeStyle=orthogonalEdgeStyle;rounded=0;orthogonalLoop=1;jettySize=auto;html=1;exitX=0.5;exitY=1;exitDx=0;exitDy=0;entryX=0;entryY=0.5;entryDx=0;entryDy=0;fillColor=#d0cee2;strokeColor=#56517e;" parent="1" source="4pOkDqGrPwap0Yr39oTi-9" target="4pOkDqGrPwap0Yr39oTi-17" edge="1">
          <mxGeometry relative="1" as="geometry" />
        </mxCell>
        <mxCell id="4pOkDqGrPwap0Yr39oTi-25" style="edgeStyle=orthogonalEdgeStyle;rounded=0;orthogonalLoop=1;jettySize=auto;html=1;exitX=0.5;exitY=1;exitDx=0;exitDy=0;entryX=0;entryY=0.5;entryDx=0;entryDy=0;fillColor=#d0cee2;strokeColor=#56517e;" parent="1" source="4pOkDqGrPwap0Yr39oTi-9" target="4pOkDqGrPwap0Yr39oTi-19" edge="1">
          <mxGeometry relative="1" as="geometry" />
        </mxCell>
        <mxCell id="4pOkDqGrPwap0Yr39oTi-26" style="edgeStyle=orthogonalEdgeStyle;rounded=0;orthogonalLoop=1;jettySize=auto;html=1;exitX=0.5;exitY=1;exitDx=0;exitDy=0;entryX=0;entryY=0.5;entryDx=0;entryDy=0;fillColor=#d0cee2;strokeColor=#56517e;" parent="1" source="4pOkDqGrPwap0Yr39oTi-9" target="4pOkDqGrPwap0Yr39oTi-20" edge="1">
          <mxGeometry relative="1" as="geometry" />
        </mxCell>
        <mxCell id="4pOkDqGrPwap0Yr39oTi-31" style="edgeStyle=orthogonalEdgeStyle;rounded=0;orthogonalLoop=1;jettySize=auto;html=1;exitX=0.5;exitY=1;exitDx=0;exitDy=0;entryX=0;entryY=0.5;entryDx=0;entryDy=0;fillColor=#d0cee2;strokeColor=#56517e;" parent="1" source="4pOkDqGrPwap0Yr39oTi-9" target="4pOkDqGrPwap0Yr39oTi-29" edge="1">
          <mxGeometry relative="1" as="geometry" />
        </mxCell>
        <mxCell id="4pOkDqGrPwap0Yr39oTi-9" value="拉契爾恩&lt;div&gt;市中心&lt;/div&gt;" style="rounded=0;whiteSpace=wrap;html=1;fillColor=#d0cee2;strokeColor=#56517e;" parent="1" vertex="1">
          <mxGeometry x="1040" y="1160" width="80" height="40" as="geometry" />
        </mxCell>
        <mxCell id="4pOkDqGrPwap0Yr39oTi-15" style="edgeStyle=orthogonalEdgeStyle;rounded=0;orthogonalLoop=1;jettySize=auto;html=1;exitX=1;exitY=0.5;exitDx=0;exitDy=0;entryX=0;entryY=0.5;entryDx=0;entryDy=0;fillColor=#d0cee2;strokeColor=#56517e;" parent="1" source="4pOkDqGrPwap0Yr39oTi-11" target="4pOkDqGrPwap0Yr39oTi-12" edge="1">
          <mxGeometry relative="1" as="geometry" />
        </mxCell>
        <mxCell id="4pOkDqGrPwap0Yr39oTi-11" value="雞群遊樂場&lt;br&gt;1/2/3" style="rounded=0;whiteSpace=wrap;html=1;fillColor=#d0cee2;strokeColor=#56517e;" parent="1" vertex="1">
          <mxGeometry x="1160" y="1160" width="80" height="40" as="geometry" />
        </mxCell>
        <mxCell id="4pOkDqGrPwap0Yr39oTi-16" style="edgeStyle=orthogonalEdgeStyle;rounded=0;orthogonalLoop=1;jettySize=auto;html=1;exitX=1;exitY=0.5;exitDx=0;exitDy=0;fillColor=#d0cee2;strokeColor=#56517e;" parent="1" source="4pOkDqGrPwap0Yr39oTi-12" target="4pOkDqGrPwap0Yr39oTi-13" edge="1">
          <mxGeometry relative="1" as="geometry" />
        </mxCell>
        <mxCell id="4pOkDqGrPwap0Yr39oTi-12" value="吵雜不夜城" style="rounded=0;whiteSpace=wrap;html=1;fillColor=#d0cee2;strokeColor=#56517e;" parent="1" vertex="1">
          <mxGeometry x="1280" y="1160" width="80" height="40" as="geometry" />
        </mxCell>
        <mxCell id="4pOkDqGrPwap0Yr39oTi-13" value="優勝碟的街道&lt;br&gt;1/2" style="rounded=0;whiteSpace=wrap;html=1;fillColor=#d0cee2;strokeColor=#56517e;" parent="1" vertex="1">
          <mxGeometry x="1400" y="1160" width="80" height="40" as="geometry" />
        </mxCell>
        <mxCell id="4pOkDqGrPwap0Yr39oTi-24" style="edgeStyle=orthogonalEdgeStyle;rounded=0;orthogonalLoop=1;jettySize=auto;html=1;exitX=1;exitY=0.5;exitDx=0;exitDy=0;entryX=0;entryY=0.5;entryDx=0;entryDy=0;fillColor=#d0cee2;strokeColor=#56517e;" parent="1" source="4pOkDqGrPwap0Yr39oTi-17" target="4pOkDqGrPwap0Yr39oTi-18" edge="1">
          <mxGeometry relative="1" as="geometry" />
        </mxCell>
        <mxCell id="4pOkDqGrPwap0Yr39oTi-17" value="秘密據點" style="rounded=0;whiteSpace=wrap;html=1;fillColor=#d0cee2;strokeColor=#56517e;" parent="1" vertex="1">
          <mxGeometry x="1160" y="1240" width="80" height="40" as="geometry" />
        </mxCell>
        <mxCell id="4pOkDqGrPwap0Yr39oTi-18" value="不法者街道&lt;br&gt;1/2/3" style="rounded=0;whiteSpace=wrap;html=1;fillColor=#d0cee2;strokeColor=#56517e;" parent="1" vertex="1">
          <mxGeometry x="1280" y="1240" width="80" height="40" as="geometry" />
        </mxCell>
        <mxCell id="hBci-ddeVOfZTZ9PN2GE-2" value="NPC 飛魚" style="edgeStyle=orthogonalEdgeStyle;rounded=0;orthogonalLoop=1;jettySize=auto;html=1;exitX=1;exitY=0.5;exitDx=0;exitDy=0;entryX=0;entryY=0.5;entryDx=0;entryDy=0;fillColor=#e1d5e7;strokeColor=#9673a6;fontColor=#9673A6;" parent="1" source="4pOkDqGrPwap0Yr39oTi-19" target="hBci-ddeVOfZTZ9PN2GE-1" edge="1">
          <mxGeometry relative="1" as="geometry" />
        </mxCell>
        <mxCell id="4pOkDqGrPwap0Yr39oTi-19" value="拉契爾恩&lt;div&gt;河下游&lt;/div&gt;" style="rounded=0;whiteSpace=wrap;html=1;fillColor=#d0cee2;strokeColor=#56517e;" parent="1" vertex="1">
          <mxGeometry x="1160" y="1320" width="80" height="40" as="geometry" />
        </mxCell>
        <mxCell id="4pOkDqGrPwap0Yr39oTi-27" style="edgeStyle=orthogonalEdgeStyle;rounded=0;orthogonalLoop=1;jettySize=auto;html=1;exitX=1;exitY=0.5;exitDx=0;exitDy=0;entryX=0;entryY=0.5;entryDx=0;entryDy=0;fillColor=#d0cee2;strokeColor=#56517e;" parent="1" source="4pOkDqGrPwap0Yr39oTi-20" target="4pOkDqGrPwap0Yr39oTi-21" edge="1">
          <mxGeometry relative="1" as="geometry" />
        </mxCell>
        <mxCell id="4pOkDqGrPwap0Yr39oTi-20" value="顯露本色之處&lt;br&gt;1/2/3" style="rounded=0;whiteSpace=wrap;html=1;fillColor=#d0cee2;strokeColor=#56517e;" parent="1" vertex="1">
          <mxGeometry x="1160" y="1400" width="80" height="40" as="geometry" />
        </mxCell>
        <mxCell id="4pOkDqGrPwap0Yr39oTi-28" style="edgeStyle=orthogonalEdgeStyle;rounded=0;orthogonalLoop=1;jettySize=auto;html=1;exitX=1;exitY=0.5;exitDx=0;exitDy=0;entryX=0;entryY=0.5;entryDx=0;entryDy=0;fillColor=#d0cee2;strokeColor=#56517e;" parent="1" source="4pOkDqGrPwap0Yr39oTi-21" target="4pOkDqGrPwap0Yr39oTi-22" edge="1">
          <mxGeometry relative="1" as="geometry" />
        </mxCell>
        <mxCell id="4pOkDqGrPwap0Yr39oTi-21" value="愉快的舞會場" style="rounded=0;whiteSpace=wrap;html=1;fillColor=#d0cee2;strokeColor=#56517e;" parent="1" vertex="1">
          <mxGeometry x="1280" y="1400" width="80" height="40" as="geometry" />
        </mxCell>
        <mxCell id="4pOkDqGrPwap0Yr39oTi-22" value="跳舞鞋佔領地&lt;br&gt;1/2" style="rounded=0;whiteSpace=wrap;html=1;fillColor=#d0cee2;strokeColor=#56517e;" parent="1" vertex="1">
          <mxGeometry x="1400" y="1400" width="80" height="40" as="geometry" />
        </mxCell>
        <mxCell id="4pOkDqGrPwap0Yr39oTi-32" style="edgeStyle=orthogonalEdgeStyle;rounded=0;orthogonalLoop=1;jettySize=auto;html=1;exitX=1;exitY=0.5;exitDx=0;exitDy=0;entryX=0;entryY=0.5;entryDx=0;entryDy=0;fillColor=#d0cee2;strokeColor=#56517e;" parent="1" source="4pOkDqGrPwap0Yr39oTi-29" target="4pOkDqGrPwap0Yr39oTi-30" edge="1">
          <mxGeometry relative="1" as="geometry" />
        </mxCell>
        <mxCell id="4pOkDqGrPwap0Yr39oTi-29" value="惡夢時間塔&lt;br&gt;1/2/3/4/5 樓" style="rounded=0;whiteSpace=wrap;html=1;fillColor=#d0cee2;strokeColor=#56517e;" parent="1" vertex="1">
          <mxGeometry x="1160" y="1480" width="80" height="40" as="geometry" />
        </mxCell>
        <mxCell id="4pOkDqGrPwap0Yr39oTi-30" value="惡夢時間塔&lt;br&gt;頂端" style="rounded=0;whiteSpace=wrap;html=1;fillColor=#d0cee2;strokeColor=#56517e;" parent="1" vertex="1">
          <mxGeometry x="1280" y="1480" width="80" height="40" as="geometry" />
        </mxCell>
        <mxCell id="hBci-ddeVOfZTZ9PN2GE-22" style="edgeStyle=orthogonalEdgeStyle;rounded=0;orthogonalLoop=1;jettySize=auto;html=1;exitX=1;exitY=0.5;exitDx=0;exitDy=0;entryX=0;entryY=0.5;entryDx=0;entryDy=0;fillColor=#bac8d3;strokeColor=#23445d;" parent="1" source="hBci-ddeVOfZTZ9PN2GE-1" target="hBci-ddeVOfZTZ9PN2GE-3" edge="1">
          <mxGeometry relative="1" as="geometry" />
        </mxCell>
        <mxCell id="hBci-ddeVOfZTZ9PN2GE-1" value="森林入口" style="rounded=0;whiteSpace=wrap;html=1;fillColor=#bac8d3;strokeColor=#23445d;" parent="1" vertex="1">
          <mxGeometry x="1400" y="1320" width="80" height="40" as="geometry" />
        </mxCell>
        <mxCell id="hBci-ddeVOfZTZ9PN2GE-23" style="edgeStyle=orthogonalEdgeStyle;rounded=0;orthogonalLoop=1;jettySize=auto;html=1;exitX=1;exitY=0.5;exitDx=0;exitDy=0;entryX=0;entryY=0.5;entryDx=0;entryDy=0;fillColor=#bac8d3;strokeColor=#23445d;" parent="1" source="hBci-ddeVOfZTZ9PN2GE-3" target="hBci-ddeVOfZTZ9PN2GE-4" edge="1">
          <mxGeometry relative="1" as="geometry" />
        </mxCell>
        <mxCell id="hBci-ddeVOfZTZ9PN2GE-3" value="精靈之樹&lt;div&gt;所見之處&lt;/div&gt;" style="rounded=0;whiteSpace=wrap;html=1;fillColor=#bac8d3;strokeColor=#23445d;" parent="1" vertex="1">
          <mxGeometry x="1520" y="1320" width="80" height="40" as="geometry" />
        </mxCell>
        <mxCell id="hBci-ddeVOfZTZ9PN2GE-24" style="edgeStyle=orthogonalEdgeStyle;rounded=0;orthogonalLoop=1;jettySize=auto;html=1;exitX=1;exitY=0.5;exitDx=0;exitDy=0;entryX=0;entryY=0.5;entryDx=0;entryDy=0;fillColor=#bac8d3;strokeColor=#23445d;" parent="1" source="hBci-ddeVOfZTZ9PN2GE-4" target="hBci-ddeVOfZTZ9PN2GE-5" edge="1">
          <mxGeometry relative="1" as="geometry" />
        </mxCell>
        <mxCell id="hBci-ddeVOfZTZ9PN2GE-4" value="草笛的森林" style="rounded=0;whiteSpace=wrap;html=1;fillColor=#bac8d3;strokeColor=#23445d;" parent="1" vertex="1">
          <mxGeometry x="1640" y="1320" width="80" height="40" as="geometry" />
        </mxCell>
        <mxCell id="hBci-ddeVOfZTZ9PN2GE-25" style="edgeStyle=orthogonalEdgeStyle;rounded=0;orthogonalLoop=1;jettySize=auto;html=1;exitX=1;exitY=0.5;exitDx=0;exitDy=0;entryX=0;entryY=0.5;entryDx=0;entryDy=0;fillColor=#bac8d3;strokeColor=#23445d;" parent="1" source="hBci-ddeVOfZTZ9PN2GE-5" target="hBci-ddeVOfZTZ9PN2GE-6" edge="1">
          <mxGeometry relative="1" as="geometry" />
        </mxCell>
        <mxCell id="hBci-ddeVOfZTZ9PN2GE-5" value="水之森" style="rounded=0;whiteSpace=wrap;html=1;fillColor=#bac8d3;strokeColor=#23445d;" parent="1" vertex="1">
          <mxGeometry x="1760" y="1320" width="80" height="40" as="geometry" />
        </mxCell>
        <mxCell id="hBci-ddeVOfZTZ9PN2GE-26" style="edgeStyle=orthogonalEdgeStyle;rounded=0;orthogonalLoop=1;jettySize=auto;html=1;exitX=1;exitY=0.5;exitDx=0;exitDy=0;entryX=0;entryY=0.5;entryDx=0;entryDy=0;fillColor=#bac8d3;strokeColor=#23445d;" parent="1" source="hBci-ddeVOfZTZ9PN2GE-6" target="hBci-ddeVOfZTZ9PN2GE-8" edge="1">
          <mxGeometry relative="1" as="geometry" />
        </mxCell>
        <mxCell id="hBci-ddeVOfZTZ9PN2GE-27" style="edgeStyle=orthogonalEdgeStyle;rounded=0;orthogonalLoop=1;jettySize=auto;html=1;exitX=0.5;exitY=0;exitDx=0;exitDy=0;entryX=0.5;entryY=1;entryDx=0;entryDy=0;fillColor=#bac8d3;strokeColor=#23445d;" parent="1" source="hBci-ddeVOfZTZ9PN2GE-6" target="hBci-ddeVOfZTZ9PN2GE-7" edge="1">
          <mxGeometry relative="1" as="geometry" />
        </mxCell>
        <mxCell id="hBci-ddeVOfZTZ9PN2GE-6" value="日光之森" style="rounded=0;whiteSpace=wrap;html=1;fillColor=#bac8d3;strokeColor=#23445d;" parent="1" vertex="1">
          <mxGeometry x="1880" y="1320" width="80" height="40" as="geometry" />
        </mxCell>
        <mxCell id="hBci-ddeVOfZTZ9PN2GE-7" value="水和日光之森" style="rounded=0;whiteSpace=wrap;html=1;fillColor=#bac8d3;strokeColor=#23445d;" parent="1" vertex="1">
          <mxGeometry x="1880" y="1240" width="80" height="40" as="geometry" />
        </mxCell>
        <mxCell id="hBci-ddeVOfZTZ9PN2GE-28" style="edgeStyle=orthogonalEdgeStyle;rounded=0;orthogonalLoop=1;jettySize=auto;html=1;exitX=0.5;exitY=0;exitDx=0;exitDy=0;entryX=0.5;entryY=1;entryDx=0;entryDy=0;fillColor=#bac8d3;strokeColor=#23445d;" parent="1" source="hBci-ddeVOfZTZ9PN2GE-8" target="hBci-ddeVOfZTZ9PN2GE-9" edge="1">
          <mxGeometry relative="1" as="geometry" />
        </mxCell>
        <mxCell id="hBci-ddeVOfZTZ9PN2GE-29" style="edgeStyle=orthogonalEdgeStyle;rounded=0;orthogonalLoop=1;jettySize=auto;html=1;exitX=1;exitY=0.5;exitDx=0;exitDy=0;entryX=0;entryY=0.5;entryDx=0;entryDy=0;fillColor=#bac8d3;strokeColor=#23445d;" parent="1" source="hBci-ddeVOfZTZ9PN2GE-8" target="hBci-ddeVOfZTZ9PN2GE-10" edge="1">
          <mxGeometry relative="1" as="geometry" />
        </mxCell>
        <mxCell id="hBci-ddeVOfZTZ9PN2GE-8" value="土之森" style="rounded=0;whiteSpace=wrap;html=1;fillColor=#bac8d3;strokeColor=#23445d;" parent="1" vertex="1">
          <mxGeometry x="2000" y="1320" width="80" height="40" as="geometry" />
        </mxCell>
        <mxCell id="hBci-ddeVOfZTZ9PN2GE-9" value="日光和土之森" style="rounded=0;whiteSpace=wrap;html=1;fillColor=#bac8d3;strokeColor=#23445d;" parent="1" vertex="1">
          <mxGeometry x="2000" y="1240" width="80" height="40" as="geometry" />
        </mxCell>
        <mxCell id="hBci-ddeVOfZTZ9PN2GE-30" style="edgeStyle=orthogonalEdgeStyle;rounded=0;orthogonalLoop=1;jettySize=auto;html=1;exitX=1;exitY=0.5;exitDx=0;exitDy=0;fillColor=#bac8d3;strokeColor=#23445d;" parent="1" source="hBci-ddeVOfZTZ9PN2GE-10" target="hBci-ddeVOfZTZ9PN2GE-11" edge="1">
          <mxGeometry relative="1" as="geometry" />
        </mxCell>
        <mxCell id="hBci-ddeVOfZTZ9PN2GE-10" value="精靈之樹&lt;br&gt;的所在地" style="rounded=0;whiteSpace=wrap;html=1;fillColor=#bac8d3;strokeColor=#23445d;" parent="1" vertex="1">
          <mxGeometry x="2120" y="1320" width="80" height="40" as="geometry" />
        </mxCell>
        <mxCell id="hBci-ddeVOfZTZ9PN2GE-31" style="edgeStyle=orthogonalEdgeStyle;rounded=0;orthogonalLoop=1;jettySize=auto;html=1;exitX=1;exitY=0.5;exitDx=0;exitDy=0;entryX=0;entryY=0.5;entryDx=0;entryDy=0;fillColor=#bac8d3;strokeColor=#23445d;" parent="1" source="hBci-ddeVOfZTZ9PN2GE-11" target="hBci-ddeVOfZTZ9PN2GE-12" edge="1">
          <mxGeometry relative="1" as="geometry" />
        </mxCell>
        <mxCell id="hBci-ddeVOfZTZ9PN2GE-11" value="森林深處" style="rounded=0;whiteSpace=wrap;html=1;fillColor=#bac8d3;strokeColor=#23445d;" parent="1" vertex="1">
          <mxGeometry x="2240" y="1320" width="80" height="40" as="geometry" />
        </mxCell>
        <mxCell id="hBci-ddeVOfZTZ9PN2GE-32" style="edgeStyle=orthogonalEdgeStyle;rounded=0;orthogonalLoop=1;jettySize=auto;html=1;exitX=1;exitY=0.5;exitDx=0;exitDy=0;entryX=0;entryY=0.5;entryDx=0;entryDy=0;fillColor=#bac8d3;strokeColor=#23445d;" parent="1" source="hBci-ddeVOfZTZ9PN2GE-12" target="hBci-ddeVOfZTZ9PN2GE-13" edge="1">
          <mxGeometry relative="1" as="geometry" />
        </mxCell>
        <mxCell id="hBci-ddeVOfZTZ9PN2GE-12" value="霜雲之森" style="rounded=0;whiteSpace=wrap;html=1;fillColor=#bac8d3;strokeColor=#23445d;" parent="1" vertex="1">
          <mxGeometry x="2360" y="1320" width="80" height="40" as="geometry" />
        </mxCell>
        <mxCell id="hBci-ddeVOfZTZ9PN2GE-33" style="edgeStyle=orthogonalEdgeStyle;rounded=0;orthogonalLoop=1;jettySize=auto;html=1;exitX=0.25;exitY=0;exitDx=0;exitDy=0;entryX=0.5;entryY=1;entryDx=0;entryDy=0;fillColor=#bac8d3;strokeColor=#23445d;" parent="1" source="hBci-ddeVOfZTZ9PN2GE-13" target="hBci-ddeVOfZTZ9PN2GE-14" edge="1">
          <mxGeometry relative="1" as="geometry" />
        </mxCell>
        <mxCell id="hBci-ddeVOfZTZ9PN2GE-34" style="edgeStyle=orthogonalEdgeStyle;rounded=0;orthogonalLoop=1;jettySize=auto;html=1;exitX=0.75;exitY=0;exitDx=0;exitDy=0;entryX=0.5;entryY=1;entryDx=0;entryDy=0;fillColor=#bac8d3;strokeColor=#23445d;" parent="1" source="hBci-ddeVOfZTZ9PN2GE-13" target="hBci-ddeVOfZTZ9PN2GE-16" edge="1">
          <mxGeometry relative="1" as="geometry" />
        </mxCell>
        <mxCell id="hBci-ddeVOfZTZ9PN2GE-35" style="edgeStyle=orthogonalEdgeStyle;rounded=0;orthogonalLoop=1;jettySize=auto;html=1;exitX=1;exitY=0.5;exitDx=0;exitDy=0;entryX=0;entryY=0.5;entryDx=0;entryDy=0;fillColor=#bac8d3;strokeColor=#23445d;" parent="1" source="hBci-ddeVOfZTZ9PN2GE-13" target="hBci-ddeVOfZTZ9PN2GE-15" edge="1">
          <mxGeometry relative="1" as="geometry" />
        </mxCell>
        <mxCell id="hBci-ddeVOfZTZ9PN2GE-13" value="雷雲之森" style="rounded=0;whiteSpace=wrap;html=1;fillColor=#bac8d3;strokeColor=#23445d;" parent="1" vertex="1">
          <mxGeometry x="2480" y="1320" width="80" height="40" as="geometry" />
        </mxCell>
        <mxCell id="hBci-ddeVOfZTZ9PN2GE-14" value="霜與雷之森 1" style="rounded=0;whiteSpace=wrap;html=1;fillColor=#bac8d3;strokeColor=#23445d;" parent="1" vertex="1">
          <mxGeometry x="2420" y="1240" width="80" height="40" as="geometry" />
        </mxCell>
        <mxCell id="hBci-ddeVOfZTZ9PN2GE-36" style="edgeStyle=orthogonalEdgeStyle;rounded=0;orthogonalLoop=1;jettySize=auto;html=1;exitX=1;exitY=0.5;exitDx=0;exitDy=0;entryX=0;entryY=0.5;entryDx=0;entryDy=0;fillColor=#bac8d3;strokeColor=#23445d;" parent="1" source="hBci-ddeVOfZTZ9PN2GE-15" target="hBci-ddeVOfZTZ9PN2GE-18" edge="1">
          <mxGeometry relative="1" as="geometry" />
        </mxCell>
        <mxCell id="hBci-ddeVOfZTZ9PN2GE-15" value="猛毒之森" style="rounded=0;whiteSpace=wrap;html=1;fillColor=#bac8d3;strokeColor=#23445d;" parent="1" vertex="1">
          <mxGeometry x="2600" y="1320" width="80" height="40" as="geometry" />
        </mxCell>
        <mxCell id="hBci-ddeVOfZTZ9PN2GE-16" value="霜與雷之森 2" style="rounded=0;whiteSpace=wrap;html=1;fillColor=#bac8d3;strokeColor=#23445d;" parent="1" vertex="1">
          <mxGeometry x="2530" y="1240" width="80" height="40" as="geometry" />
        </mxCell>
        <mxCell id="hBci-ddeVOfZTZ9PN2GE-37" style="edgeStyle=orthogonalEdgeStyle;rounded=0;orthogonalLoop=1;jettySize=auto;html=1;exitX=0.5;exitY=1;exitDx=0;exitDy=0;entryX=0.5;entryY=0;entryDx=0;entryDy=0;fillColor=#bac8d3;strokeColor=#23445d;" parent="1" source="hBci-ddeVOfZTZ9PN2GE-18" target="hBci-ddeVOfZTZ9PN2GE-19" edge="1">
          <mxGeometry relative="1" as="geometry" />
        </mxCell>
        <mxCell id="hBci-ddeVOfZTZ9PN2GE-39" style="edgeStyle=orthogonalEdgeStyle;rounded=0;orthogonalLoop=1;jettySize=auto;html=1;exitX=1;exitY=0.5;exitDx=0;exitDy=0;entryX=0;entryY=0.5;entryDx=0;entryDy=0;fillColor=#bac8d3;strokeColor=#23445d;" parent="1" source="hBci-ddeVOfZTZ9PN2GE-18" target="hBci-ddeVOfZTZ9PN2GE-20" edge="1">
          <mxGeometry relative="1" as="geometry">
            <Array as="points">
              <mxPoint x="2820" y="1340" />
              <mxPoint x="2820" y="1340" />
            </Array>
          </mxGeometry>
        </mxCell>
        <mxCell id="hBci-ddeVOfZTZ9PN2GE-40" style="edgeStyle=orthogonalEdgeStyle;rounded=0;orthogonalLoop=1;jettySize=auto;html=1;exitX=1;exitY=0.25;exitDx=0;exitDy=0;entryX=0;entryY=0.5;entryDx=0;entryDy=0;fillColor=#bac8d3;strokeColor=#23445d;" parent="1" source="hBci-ddeVOfZTZ9PN2GE-18" target="hBci-ddeVOfZTZ9PN2GE-21" edge="1">
          <mxGeometry relative="1" as="geometry" />
        </mxCell>
        <mxCell id="hBci-ddeVOfZTZ9PN2GE-18" value="爆破之森" style="rounded=0;whiteSpace=wrap;html=1;fillColor=#bac8d3;strokeColor=#23445d;" parent="1" vertex="1">
          <mxGeometry x="2720" y="1320" width="80" height="40" as="geometry" />
        </mxCell>
        <mxCell id="mxgmcXPImDc4SzfmMT98-2" style="edgeStyle=orthogonalEdgeStyle;rounded=0;orthogonalLoop=1;jettySize=auto;html=1;exitX=1;exitY=0.5;exitDx=0;exitDy=0;entryX=0;entryY=0.5;entryDx=0;entryDy=0;fillColor=#bac8d3;strokeColor=#23445d;" edge="1" parent="1" source="hBci-ddeVOfZTZ9PN2GE-19" target="mxgmcXPImDc4SzfmMT98-1">
          <mxGeometry relative="1" as="geometry" />
        </mxCell>
        <mxCell id="hBci-ddeVOfZTZ9PN2GE-19" value="木琴蓮池" style="rounded=0;whiteSpace=wrap;html=1;fillColor=#bac8d3;strokeColor=#23445d;" parent="1" vertex="1">
          <mxGeometry x="2720" y="1400" width="80" height="40" as="geometry" />
        </mxCell>
        <mxCell id="hBci-ddeVOfZTZ9PN2GE-20" value="猛毒與爆破之森 2" style="rounded=0;whiteSpace=wrap;html=1;fillColor=#bac8d3;strokeColor=#23445d;" parent="1" vertex="1">
          <mxGeometry x="2840" y="1320" width="80" height="40" as="geometry" />
        </mxCell>
        <mxCell id="hBci-ddeVOfZTZ9PN2GE-21" value="猛毒與爆破之森 1" style="rounded=0;whiteSpace=wrap;html=1;fillColor=#bac8d3;strokeColor=#23445d;" parent="1" vertex="1">
          <mxGeometry x="2840" y="1240" width="80" height="40" as="geometry" />
        </mxCell>
        <mxCell id="mxgmcXPImDc4SzfmMT98-33" style="edgeStyle=orthogonalEdgeStyle;rounded=0;orthogonalLoop=1;jettySize=auto;html=1;exitX=0.5;exitY=1;exitDx=0;exitDy=0;fillColor=#bac8d3;strokeColor=#23445d;" edge="1" parent="1" source="mxgmcXPImDc4SzfmMT98-1" target="mxgmcXPImDc4SzfmMT98-3">
          <mxGeometry relative="1" as="geometry" />
        </mxCell>
        <mxCell id="mxgmcXPImDc4SzfmMT98-34" style="edgeStyle=orthogonalEdgeStyle;rounded=0;orthogonalLoop=1;jettySize=auto;html=1;exitX=1;exitY=0.5;exitDx=0;exitDy=0;entryX=0;entryY=0.5;entryDx=0;entryDy=0;fillColor=#bac8d3;strokeColor=#23445d;" edge="1" parent="1" source="mxgmcXPImDc4SzfmMT98-1" target="mxgmcXPImDc4SzfmMT98-10">
          <mxGeometry relative="1" as="geometry" />
        </mxCell>
        <mxCell id="mxgmcXPImDc4SzfmMT98-1" value="四道洞穴" style="rounded=0;whiteSpace=wrap;html=1;fillColor=#bac8d3;strokeColor=#23445d;" vertex="1" parent="1">
          <mxGeometry x="2840" y="1400" width="80" height="40" as="geometry" />
        </mxCell>
        <mxCell id="mxgmcXPImDc4SzfmMT98-32" style="edgeStyle=orthogonalEdgeStyle;rounded=0;orthogonalLoop=1;jettySize=auto;html=1;exitX=0.25;exitY=1;exitDx=0;exitDy=0;fillColor=#bac8d3;strokeColor=#23445d;" edge="1" parent="1" source="mxgmcXPImDc4SzfmMT98-1" target="mxgmcXPImDc4SzfmMT98-18">
          <mxGeometry relative="1" as="geometry">
            <Array as="points">
              <mxPoint x="2860" y="1460" />
              <mxPoint x="2280" y="1460" />
            </Array>
          </mxGeometry>
        </mxCell>
        <mxCell id="mxgmcXPImDc4SzfmMT98-3" value="洞穴的下路" style="rounded=0;whiteSpace=wrap;html=1;fillColor=#bac8d3;strokeColor=#23445d;" vertex="1" parent="1">
          <mxGeometry x="2840" y="1480" width="80" height="40" as="geometry" />
        </mxCell>
        <mxCell id="mxgmcXPImDc4SzfmMT98-4" value="洞穴的下路 1" style="rounded=0;whiteSpace=wrap;html=1;fillColor=#bac8d3;strokeColor=#23445d;" vertex="1" parent="1">
          <mxGeometry x="2840" y="1560" width="80" height="40" as="geometry" />
        </mxCell>
        <mxCell id="mxgmcXPImDc4SzfmMT98-5" value="洞穴的&lt;div&gt;下路深處 2&lt;/div&gt;" style="rounded=0;whiteSpace=wrap;html=1;fillColor=#bac8d3;strokeColor=#23445d;" vertex="1" parent="1">
          <mxGeometry x="2840" y="1640" width="80" height="40" as="geometry" />
        </mxCell>
        <mxCell id="mxgmcXPImDc4SzfmMT98-6" value="洞穴的&lt;div&gt;下路深處&lt;/div&gt;" style="rounded=0;whiteSpace=wrap;html=1;fillColor=#bac8d3;strokeColor=#23445d;" vertex="1" parent="1">
          <mxGeometry x="2840" y="1720" width="80" height="40" as="geometry" />
        </mxCell>
        <mxCell id="mxgmcXPImDc4SzfmMT98-15" style="edgeStyle=orthogonalEdgeStyle;rounded=0;orthogonalLoop=1;jettySize=auto;html=1;exitX=1;exitY=0.5;exitDx=0;exitDy=0;entryX=0;entryY=0.5;entryDx=0;entryDy=0;fillColor=#bac8d3;strokeColor=#23445d;" edge="1" parent="1" source="mxgmcXPImDc4SzfmMT98-10" target="mxgmcXPImDc4SzfmMT98-14">
          <mxGeometry relative="1" as="geometry" />
        </mxCell>
        <mxCell id="mxgmcXPImDc4SzfmMT98-16" style="edgeStyle=orthogonalEdgeStyle;rounded=0;orthogonalLoop=1;jettySize=auto;html=1;exitX=1;exitY=0.5;exitDx=0;exitDy=0;entryX=0;entryY=0.5;entryDx=0;entryDy=0;fillColor=#bac8d3;strokeColor=#23445d;" edge="1" parent="1" source="mxgmcXPImDc4SzfmMT98-10" target="mxgmcXPImDc4SzfmMT98-11">
          <mxGeometry relative="1" as="geometry" />
        </mxCell>
        <mxCell id="mxgmcXPImDc4SzfmMT98-10" value="洞穴的上路" style="rounded=0;whiteSpace=wrap;html=1;fillColor=#bac8d3;strokeColor=#23445d;" vertex="1" parent="1">
          <mxGeometry x="2960" y="1400" width="80" height="40" as="geometry" />
        </mxCell>
        <mxCell id="mxgmcXPImDc4SzfmMT98-17" style="edgeStyle=orthogonalEdgeStyle;rounded=0;orthogonalLoop=1;jettySize=auto;html=1;exitX=1;exitY=0.5;exitDx=0;exitDy=0;entryX=0;entryY=0.5;entryDx=0;entryDy=0;fillColor=#bac8d3;strokeColor=#23445d;" edge="1" parent="1" source="mxgmcXPImDc4SzfmMT98-11" target="mxgmcXPImDc4SzfmMT98-13">
          <mxGeometry relative="1" as="geometry" />
        </mxCell>
        <mxCell id="mxgmcXPImDc4SzfmMT98-11" value="洞穴的&lt;div&gt;上路深處 2&lt;/div&gt;" style="rounded=0;whiteSpace=wrap;html=1;fillColor=#bac8d3;strokeColor=#23445d;" vertex="1" parent="1">
          <mxGeometry x="3080" y="1480" width="80" height="40" as="geometry" />
        </mxCell>
        <mxCell id="mxgmcXPImDc4SzfmMT98-13" value="洞穴的&lt;div&gt;上路深淵處&lt;/div&gt;" style="rounded=0;whiteSpace=wrap;html=1;fillColor=#bac8d3;strokeColor=#23445d;" vertex="1" parent="1">
          <mxGeometry x="3200" y="1480" width="80" height="40" as="geometry" />
        </mxCell>
        <mxCell id="mxgmcXPImDc4SzfmMT98-14" value="洞穴的&lt;div&gt;上路深處 1&lt;/div&gt;" style="rounded=0;whiteSpace=wrap;html=1;fillColor=#bac8d3;strokeColor=#23445d;" vertex="1" parent="1">
          <mxGeometry x="3080" y="1400" width="80" height="40" as="geometry" />
        </mxCell>
        <mxCell id="mxgmcXPImDc4SzfmMT98-26" style="edgeStyle=orthogonalEdgeStyle;rounded=0;orthogonalLoop=1;jettySize=auto;html=1;exitX=1;exitY=0.25;exitDx=0;exitDy=0;entryX=0;entryY=0.5;entryDx=0;entryDy=0;fillColor=#bac8d3;strokeColor=#23445d;" edge="1" parent="1" source="mxgmcXPImDc4SzfmMT98-18" target="mxgmcXPImDc4SzfmMT98-22">
          <mxGeometry relative="1" as="geometry" />
        </mxCell>
        <mxCell id="mxgmcXPImDc4SzfmMT98-27" style="edgeStyle=orthogonalEdgeStyle;rounded=0;orthogonalLoop=1;jettySize=auto;html=1;exitX=1;exitY=0.75;exitDx=0;exitDy=0;entryX=0;entryY=0.5;entryDx=0;entryDy=0;fillColor=#bac8d3;strokeColor=#23445d;" edge="1" parent="1" source="mxgmcXPImDc4SzfmMT98-18" target="mxgmcXPImDc4SzfmMT98-23">
          <mxGeometry relative="1" as="geometry" />
        </mxCell>
        <mxCell id="mxgmcXPImDc4SzfmMT98-28" style="edgeStyle=orthogonalEdgeStyle;rounded=0;orthogonalLoop=1;jettySize=auto;html=1;exitX=0;exitY=0.25;exitDx=0;exitDy=0;entryX=1;entryY=0.5;entryDx=0;entryDy=0;fillColor=#bac8d3;strokeColor=#23445d;" edge="1" parent="1" source="mxgmcXPImDc4SzfmMT98-18" target="mxgmcXPImDc4SzfmMT98-24">
          <mxGeometry relative="1" as="geometry" />
        </mxCell>
        <mxCell id="mxgmcXPImDc4SzfmMT98-29" style="edgeStyle=orthogonalEdgeStyle;rounded=0;orthogonalLoop=1;jettySize=auto;html=1;exitX=0;exitY=0.75;exitDx=0;exitDy=0;entryX=1;entryY=0.5;entryDx=0;entryDy=0;fillColor=#bac8d3;strokeColor=#23445d;" edge="1" parent="1" source="mxgmcXPImDc4SzfmMT98-18" target="mxgmcXPImDc4SzfmMT98-25">
          <mxGeometry relative="1" as="geometry" />
        </mxCell>
        <mxCell id="mxgmcXPImDc4SzfmMT98-18" value="五道洞穴" style="rounded=0;whiteSpace=wrap;html=1;fillColor=#bac8d3;strokeColor=#23445d;" vertex="1" parent="1">
          <mxGeometry x="2240" y="1560" width="80" height="40" as="geometry" />
        </mxCell>
        <mxCell id="mxgmcXPImDc4SzfmMT98-22" value="五道洞穴&lt;div&gt;的上路&lt;/div&gt;" style="rounded=0;whiteSpace=wrap;html=1;fillColor=#bac8d3;strokeColor=#23445d;" vertex="1" parent="1">
          <mxGeometry x="2360" y="1520" width="80" height="40" as="geometry" />
        </mxCell>
        <mxCell id="mxgmcXPImDc4SzfmMT98-23" value="五道洞穴&lt;div&gt;的間隔路&lt;/div&gt;" style="rounded=0;whiteSpace=wrap;html=1;fillColor=#bac8d3;strokeColor=#23445d;" vertex="1" parent="1">
          <mxGeometry x="2360" y="1600" width="80" height="40" as="geometry" />
        </mxCell>
        <mxCell id="mxgmcXPImDc4SzfmMT98-24" value="精靈之樹&lt;br&gt;&lt;div&gt;下面的洞穴&lt;/div&gt;" style="rounded=0;whiteSpace=wrap;html=1;fillColor=#bac8d3;strokeColor=#23445d;" vertex="1" parent="1">
          <mxGeometry x="2120" y="1520" width="80" height="40" as="geometry" />
        </mxCell>
        <mxCell id="mxgmcXPImDc4SzfmMT98-25" value="五道洞穴&lt;div&gt;的下路&lt;/div&gt;" style="rounded=0;whiteSpace=wrap;html=1;fillColor=#bac8d3;strokeColor=#23445d;" vertex="1" parent="1">
          <mxGeometry x="2120" y="1600" width="80" height="40" as="geometry" />
        </mxCell>
      </root>
    </mxGraphModel>
  </diagram>
</mxfile>
